<svg width="20" height="18" viewBox="0 0 20 18" fill="none" xmlns="http://www.w3.org/2000/svg">
<path d="M6.01854 11.8706C7.72206 9.47917 9.34384 7.61232 10.6094 6.26311C13.1961 3.50608 14.7405 2.44848 15.1551 2.17083C15.1551 2.17083 17.2075 0.781151 19.2249 0.0374795C19.2512 0.0277127 19.311 0.00678384 19.3927 0.00120282C19.6292 -0.014145 19.8394 0.1198 20 0.264906C19.8715 0.387689 19.7008 0.549538 19.4935 0.743479C19.1037 1.10625 18.8118 1.36855 18.7709 1.40623C16.466 3.48516 14.523 5.65757 14.523 5.65757C14.523 5.65757 12.3305 8.10764 10.5014 10.7935C10.281 11.1172 10.081 11.4283 10.081 11.4283C9.65769 12.0911 9.41829 12.5501 7.63594 15.3518C6.92212 16.4736 6.32655 17.414 5.92511 18C5.7879 18 5.65068 18 5.51347 18C5.16459 17.5256 4.34859 16.1094 3.67272 14.5272C3.67272 14.5272 2.66258 12.1371 1.70936 10.9805C1.62762 10.8814 1.4758 10.7056 1.21451 10.5717C0.75031 10.3317 0.258375 10.3945 0 10.4489C0.0160572 10.3233 0.0525509 10.1475 0.143055 9.95496C0.515291 9.17501 1.5269 8.70899 2.37647 8.71318C3.97051 8.72015 5.0843 10.3791 5.58791 11.1298C5.78352 11.42 5.92366 11.6795 6.01854 11.8706Z" fill="#356069"/>
</svg>
