<svg width="16" height="18" viewBox="0 0 16 18" fill="none" xmlns="http://www.w3.org/2000/svg">
<path d="M10.5176 17.5C10.2823 17.5 10.047 17.4169 9.89018 17.4169C9.02751 17.2508 8.16484 16.8354 7.38059 16.3369C6.1258 15.5893 5.10628 14.5093 4.16518 13.4293C3.22408 12.2663 2.28299 11.1032 1.57717 9.77399C1.10662 8.77709 0.714496 7.69711 0.557647 6.53406C0.400798 5.28793 0.557647 4.0418 1.10662 2.87874C1.42032 2.29721 1.81244 1.79876 2.36141 1.38338C2.59669 1.21723 2.83196 0.968008 3.06723 0.801857C3.61621 0.38648 4.16518 0.38648 4.5573 0.884932C4.79258 1.13416 5.02785 1.46646 5.26312 1.79876C5.65525 2.38029 6.04737 3.04489 6.28264 3.70949C6.51792 4.45717 6.43949 5.12177 5.89052 5.62023C5.57682 5.95253 5.34155 6.20175 5.02785 6.45098C4.32203 6.94943 4.2436 7.53096 4.47888 8.27864C4.71415 9.02631 5.10628 9.60784 5.57682 10.1894C6.1258 10.937 6.75319 11.6847 7.45901 12.2663C7.85114 12.5986 8.24326 12.9309 8.79223 13.0139C9.26278 13.097 9.57648 13.0139 9.9686 12.6816C10.2823 12.3493 10.596 12.017 10.9881 11.6847C11.5371 11.1863 12.1645 11.1863 12.7919 11.5186C13.0272 11.6017 13.184 11.7678 13.4193 11.934C14.0467 12.5155 14.7525 13.0139 15.2231 13.7616C15.6152 14.3431 15.6152 14.9247 15.0662 15.4231C14.5957 15.9216 14.1251 16.42 13.4977 16.7523C12.8703 17.0846 12.2429 17.3338 11.5371 17.4169C11.4587 17.4169 11.4587 17.4169 11.3802 17.4169C11.0665 17.5 10.8313 17.5 10.5176 17.5Z" fill="#0C0504"/>
</svg>
