<svg width="27" height="25" viewBox="0 0 27 25" fill="none" xmlns="http://www.w3.org/2000/svg">
<path d="M0.533691 13.3915C0.648407 13.0943 0.864343 12.912 1.14776 12.7634C9.15762 8.58318 17.1607 4.39616 25.1571 0.209151C25.4878 0.0403203 25.7982 -0.000199147 26.1086 0.222658C26.4122 0.445515 26.4865 0.756164 26.419 1.12084C26.3785 1.33019 26.3582 1.53954 26.3313 1.74889C25.9669 4.22058 25.5957 6.68551 25.2313 9.1572C24.8534 11.7167 24.4688 14.2762 24.0842 16.8356C23.8817 18.1795 23.6928 19.5234 23.4836 20.8673C23.3756 21.5494 22.9303 21.8128 22.2825 21.5899C19.2121 20.5432 16.1485 19.4897 13.085 18.4429C12.4304 18.2201 11.7826 17.9972 11.0943 17.7608C14.7247 13.378 18.3416 9.02214 21.9586 4.65954C21.9451 4.64603 21.9383 4.63253 21.9248 4.61902C21.8708 4.65954 21.8101 4.69331 21.7629 4.73383C17.1877 8.65071 12.6126 12.5676 8.03745 16.4845C7.889 16.6128 7.76754 16.6263 7.58534 16.5655C5.45298 15.8294 3.32061 15.0933 1.1815 14.3775C0.871091 14.2694 0.675399 14.0668 0.533691 13.7899C0.533691 13.6616 0.533691 13.5266 0.533691 13.3915Z" fill="#0C0504"/>
<path d="M14.3736 20.597C13.7055 21.5019 13.0645 22.3798 12.4234 23.2577C12.113 23.6764 11.8094 24.1019 11.4989 24.5206C11.2358 24.8785 10.8984 25.0001 10.534 24.8785C10.1898 24.7637 9.99414 24.4666 9.99414 24.0276C9.99414 22.4541 9.99414 20.8738 9.99414 19.3003C9.99414 19.2531 10.0009 19.199 10.0009 19.1045C11.4585 19.5975 12.8958 20.0905 14.3736 20.597Z" fill="#0C0504"/>
</svg>
