<svg width="18" height="18" viewBox="0 0 18 18" fill="none" xmlns="http://www.w3.org/2000/svg">
<path d="M8.56888 0.301195C8.72872 -0.100399 9.27128 -0.100398 9.43112 0.301196L11.5901 5.72562C11.6574 5.89474 11.8091 6.01032 11.9833 6.0252L17.5701 6.50219C17.9837 6.5375 18.1514 7.0786 17.8365 7.36211L13.5841 11.1916C13.4515 11.311 13.3936 11.498 13.4339 11.6763L14.7277 17.3955C14.8235 17.8189 14.3846 18.1534 14.0302 17.927L9.24302 14.8693C9.09376 14.774 8.90624 14.774 8.75698 14.8693L3.96984 17.927C3.61542 18.1534 3.17649 17.8189 3.27228 17.3955L4.56608 11.6763C4.60642 11.498 4.54848 11.311 4.41589 11.1916L0.163465 7.36211C-0.151362 7.0786 0.0162971 6.5375 0.42991 6.50219L6.01667 6.0252C6.19086 6.01032 6.34256 5.89474 6.40988 5.72562L8.56888 0.301195Z" fill="#356069"/>
</svg>
