<svg width="1936" height="60" viewBox="0 0 1936 60" fill="none" xmlns="http://www.w3.org/2000/svg">
<g clip-path="url(#clip0_501_431)" filter="url(#filter0_d_501_431)">
<rect width="1920" height="40" transform="translate(6)" fill="#CBDADD"/>
<rect x="193" y="-25" width="11.6371" height="98" transform="rotate(30 193 -25)" fill="white"/>
<rect x="18" y="-25" width="11.6371" height="98" transform="rotate(30 18 -25)" fill="white"/>
<rect x="1093" y="-25" width="11.6371" height="98" transform="rotate(30 1093 -25)" fill="white"/>
<rect x="493" y="-25" width="11.6371" height="98" transform="rotate(30 493 -25)" fill="white"/>
<rect x="1393" y="-25" width="11.6371" height="98" transform="rotate(30 1393 -25)" fill="white"/>
<rect x="793" y="-25" width="11.6371" height="98" transform="rotate(30 793 -25)" fill="white"/>
<rect x="1693" y="-25" width="11.6371" height="98" transform="rotate(30 1693 -25)" fill="white"/>
<rect x="218" y="-25" width="11.6371" height="98" transform="rotate(30 218 -25)" fill="white"/>
<rect x="43" y="-25" width="11.6371" height="98" transform="rotate(30 43 -25)" fill="white"/>
<rect x="1118" y="-25" width="11.6371" height="98" transform="rotate(30 1118 -25)" fill="white"/>
<rect x="518" y="-25" width="11.6371" height="98" transform="rotate(30 518 -25)" fill="white"/>
<rect x="1418" y="-25" width="11.6371" height="98" transform="rotate(30 1418 -25)" fill="white"/>
<rect x="818" y="-25" width="11.6371" height="98" transform="rotate(30 818 -25)" fill="white"/>
<rect x="1718" y="-25" width="11.6371" height="98" transform="rotate(30 1718 -25)" fill="white"/>
<rect x="243" y="-25" width="11.6371" height="98" transform="rotate(30 243 -25)" fill="white"/>
<rect x="68" y="-25" width="11.6371" height="98" transform="rotate(30 68 -25)" fill="white"/>
<rect x="1143" y="-25" width="11.6371" height="98" transform="rotate(30 1143 -25)" fill="white"/>
<rect x="543" y="-25" width="11.6371" height="98" transform="rotate(30 543 -25)" fill="white"/>
<rect x="1443" y="-25" width="11.6371" height="98" transform="rotate(30 1443 -25)" fill="white"/>
<rect x="843" y="-25" width="11.6371" height="98" transform="rotate(30 843 -25)" fill="white"/>
<rect x="1743" y="-25" width="11.6371" height="98" transform="rotate(30 1743 -25)" fill="white"/>
<rect x="268" y="-25" width="11.6371" height="98" transform="rotate(30 268 -25)" fill="white"/>
<rect x="93" y="-25" width="11.6371" height="98" transform="rotate(30 93 -25)" fill="white"/>
<rect x="1168" y="-25" width="11.6371" height="98" transform="rotate(30 1168 -25)" fill="white"/>
<rect x="568" y="-25" width="11.6371" height="98" transform="rotate(30 568 -25)" fill="white"/>
<rect x="1468" y="-25" width="11.6371" height="98" transform="rotate(30 1468 -25)" fill="white"/>
<rect x="868" y="-25" width="11.6371" height="98" transform="rotate(30 868 -25)" fill="white"/>
<rect x="1768" y="-25" width="11.6371" height="98" transform="rotate(30 1768 -25)" fill="white"/>
<rect x="293" y="-25" width="11.6371" height="98" transform="rotate(30 293 -25)" fill="white"/>
<rect x="118" y="-25" width="11.6371" height="98" transform="rotate(30 118 -25)" fill="white"/>
<rect x="1193" y="-25" width="11.6371" height="98" transform="rotate(30 1193 -25)" fill="white"/>
<rect x="593" y="-25" width="11.6371" height="98" transform="rotate(30 593 -25)" fill="white"/>
<rect x="1493" y="-25" width="11.6371" height="98" transform="rotate(30 1493 -25)" fill="white"/>
<rect x="893" y="-25" width="11.6371" height="98" transform="rotate(30 893 -25)" fill="white"/>
<rect x="1793" y="-25" width="11.6371" height="98" transform="rotate(30 1793 -25)" fill="white"/>
<rect x="318" y="-25" width="11.6371" height="98" transform="rotate(30 318 -25)" fill="white"/>
<rect x="143" y="-25" width="11.6371" height="98" transform="rotate(30 143 -25)" fill="white"/>
<rect x="1218" y="-25" width="11.6371" height="98" transform="rotate(30 1218 -25)" fill="white"/>
<rect x="618" y="-25" width="11.6371" height="98" transform="rotate(30 618 -25)" fill="white"/>
<rect x="1518" y="-25" width="11.6371" height="98" transform="rotate(30 1518 -25)" fill="white"/>
<rect x="918" y="-25" width="11.6371" height="98" transform="rotate(30 918 -25)" fill="white"/>
<rect x="1818" y="-25" width="11.6371" height="98" transform="rotate(30 1818 -25)" fill="white"/>
<rect x="343" y="-25" width="11.6371" height="98" transform="rotate(30 343 -25)" fill="white"/>
<rect x="168" y="-25" width="11.6371" height="98" transform="rotate(30 168 -25)" fill="white"/>
<rect x="1243" y="-25" width="11.6371" height="98" transform="rotate(30 1243 -25)" fill="white"/>
<rect x="643" y="-25" width="11.6371" height="98" transform="rotate(30 643 -25)" fill="white"/>
<rect x="1543" y="-25" width="11.6371" height="98" transform="rotate(30 1543 -25)" fill="white"/>
<rect x="943" y="-25" width="11.6371" height="98" transform="rotate(30 943 -25)" fill="white"/>
<rect x="1843" y="-25" width="11.6371" height="98" transform="rotate(30 1843 -25)" fill="white"/>
<rect x="368" y="-25" width="11.6371" height="98" transform="rotate(30 368 -25)" fill="white"/>
<rect x="1268" y="-25" width="11.6371" height="98" transform="rotate(30 1268 -25)" fill="white"/>
<rect x="668" y="-25" width="11.6371" height="98" transform="rotate(30 668 -25)" fill="white"/>
<rect x="1568" y="-25" width="11.6371" height="98" transform="rotate(30 1568 -25)" fill="white"/>
<rect x="968" y="-25" width="11.6371" height="98" transform="rotate(30 968 -25)" fill="white"/>
<rect x="1868" y="-25" width="11.6371" height="98" transform="rotate(30 1868 -25)" fill="white"/>
<rect x="393" y="-25" width="11.6371" height="98" transform="rotate(30 393 -25)" fill="white"/>
<rect x="1293" y="-25" width="11.6371" height="98" transform="rotate(30 1293 -25)" fill="white"/>
<rect x="693" y="-25" width="11.6371" height="98" transform="rotate(30 693 -25)" fill="white"/>
<rect x="1593" y="-25" width="11.6371" height="98" transform="rotate(30 1593 -25)" fill="white"/>
<rect x="993" y="-25" width="11.6371" height="98" transform="rotate(30 993 -25)" fill="white"/>
<rect x="1893" y="-25" width="11.6371" height="98" transform="rotate(30 1893 -25)" fill="white"/>
<rect x="418" y="-25" width="11.6371" height="98" transform="rotate(30 418 -25)" fill="white"/>
<rect x="1318" y="-25" width="11.6371" height="98" transform="rotate(30 1318 -25)" fill="white"/>
<rect x="718" y="-25" width="11.6371" height="98" transform="rotate(30 718 -25)" fill="white"/>
<rect x="1618" y="-25" width="11.6371" height="98" transform="rotate(30 1618 -25)" fill="white"/>
<rect x="1018" y="-25" width="11.6371" height="98" transform="rotate(30 1018 -25)" fill="white"/>
<rect x="1918" y="-25" width="11.6371" height="98" transform="rotate(30 1918 -25)" fill="white"/>
<rect x="443" y="-25" width="11.6371" height="98" transform="rotate(30 443 -25)" fill="white"/>
<rect x="1343" y="-25" width="11.6371" height="98" transform="rotate(30 1343 -25)" fill="white"/>
<rect x="743" y="-25" width="11.6371" height="98" transform="rotate(30 743 -25)" fill="white"/>
<rect x="1643" y="-25" width="11.6371" height="98" transform="rotate(30 1643 -25)" fill="white"/>
<rect x="1043" y="-25" width="11.6371" height="98" transform="rotate(30 1043 -25)" fill="white"/>
<rect x="1943" y="-25" width="11.6371" height="98" transform="rotate(30 1943 -25)" fill="white"/>
<rect x="468" y="-25" width="11.6371" height="98" transform="rotate(30 468 -25)" fill="white"/>
<rect x="1368" y="-25" width="11.6371" height="98" transform="rotate(30 1368 -25)" fill="white"/>
<rect x="768" y="-25" width="11.6371" height="98" transform="rotate(30 768 -25)" fill="white"/>
<rect x="1668" y="-25" width="11.6371" height="98" transform="rotate(30 1668 -25)" fill="white"/>
<rect x="1068" y="-25" width="11.6371" height="98" transform="rotate(30 1068 -25)" fill="white"/>
<rect x="1968" y="-25" width="11.6371" height="98" transform="rotate(30 1968 -25)" fill="white"/>
</g>
<defs>
<filter id="filter0_d_501_431" x="0" y="0" width="1936" height="60" filterUnits="userSpaceOnUse" color-interpolation-filters="sRGB">
<feFlood flood-opacity="0" result="BackgroundImageFix"/>
<feColorMatrix in="SourceAlpha" type="matrix" values="0 0 0 0 0 0 0 0 0 0 0 0 0 0 0 0 0 0 127 0" result="hardAlpha"/>
<feOffset dx="2" dy="12"/>
<feGaussianBlur stdDeviation="4"/>
<feComposite in2="hardAlpha" operator="out"/>
<feColorMatrix type="matrix" values="0 0 0 0 0 0 0 0 0 0 0 0 0 0 0 0 0 0 0.05 0"/>
<feBlend mode="normal" in2="BackgroundImageFix" result="effect1_dropShadow_501_431"/>
<feBlend mode="normal" in="SourceGraphic" in2="effect1_dropShadow_501_431" result="shape"/>
</filter>
<clipPath id="clip0_501_431">
<rect width="1920" height="40" fill="white" transform="translate(6)"/>
</clipPath>
</defs>
</svg>
