<svg width="356" height="131" viewBox="0 0 356 131" fill="none" xmlns="http://www.w3.org/2000/svg">
<path d="M10.6341 131C8.49896 131 6.63334 130.555 5.03719 129.665C3.44104 128.766 2.20248 127.522 1.32148 125.934C0.440495 124.336 0 122.495 0 120.409C0 118.256 0.466406 116.376 1.39922 114.769C2.3424 113.152 3.63797 111.899 5.28594 111.009C6.94427 110.119 8.85136 109.674 11.0072 109.674C12.5204 109.674 13.8782 109.885 15.0805 110.306C16.2828 110.727 17.3089 111.301 18.1588 112.028C19.019 112.745 19.6772 113.559 20.1332 114.468C20.5893 115.376 20.8276 116.314 20.8484 117.28H14.5208C14.386 116.716 14.1632 116.209 13.8523 115.759C13.5517 115.31 13.1527 114.956 12.6552 114.697C12.1577 114.429 11.5565 114.295 10.8517 114.295C10.1158 114.295 9.42141 114.482 8.76844 114.855C8.12584 115.219 7.60243 115.836 7.19821 116.706C6.80435 117.567 6.60742 118.744 6.60742 120.237C6.60742 121.509 6.74735 122.538 7.02719 123.322C7.3174 124.097 7.68534 124.69 8.13102 125.102C8.58706 125.513 9.07938 125.791 9.60797 125.934C10.1366 126.078 10.6392 126.149 11.116 126.149C11.541 126.149 11.9348 126.092 12.2976 125.977C12.6603 125.862 12.9816 125.714 13.2615 125.532C13.5413 125.341 13.7745 125.13 13.9611 124.901C14.158 124.671 14.2979 124.437 14.3809 124.198L14.6452 123.451H10.7273V119.691L21.0194 119.749V130.713H17.0549V128.417C16.6818 128.771 16.2309 129.149 15.7024 129.551C15.1841 129.952 14.5208 130.297 13.7123 130.584C12.9039 130.861 11.8778 131 10.6341 131Z" fill="#3B6A74" fill-opacity="0.26"/>
<path d="M23.7709 130.713L31.7309 109.961H37.9186L45.8786 130.713H39.9086L38.4161 126.695H31.3267L29.8031 130.713H23.7709ZM32.6016 121.93H37.048L34.8403 115.3L32.6016 121.93Z" fill="#3B6A74" fill-opacity="0.26"/>
<path d="M67.1377 130.713H60.9345L57.6697 123.566H54.4981V130.713H48.4504V109.961H58.6491C60.5977 109.961 62.1627 110.258 63.3443 110.851C64.5362 111.444 65.4017 112.248 65.9406 113.262C66.4796 114.267 66.7491 115.396 66.7491 116.649C66.7491 117.711 66.5936 118.62 66.2827 119.376C65.9821 120.122 65.5623 120.763 65.0234 121.299C64.4948 121.825 63.8833 122.284 63.1888 122.676L67.1377 130.713ZM57.9651 119.404C58.7424 119.404 59.385 119.122 59.8929 118.558C60.4111 117.993 60.6702 117.376 60.6702 116.706C60.6702 115.989 60.3904 115.376 59.8307 114.869C59.271 114.353 58.6491 114.094 57.9651 114.094H54.4981V119.404H57.9651Z" fill="#3B6A74" fill-opacity="0.26"/>
<path d="M69.3184 130.713L77.2784 109.961H83.4661L91.4261 130.713H85.4561L83.9636 126.695H76.8742L75.3506 130.713H69.3184ZM78.1491 121.93H82.5955L80.3878 115.3L78.1491 121.93Z" fill="#3B6A74" fill-opacity="0.26"/>
<path d="M102.761 131C100.626 131 98.7607 130.555 97.1646 129.665C95.5685 128.766 94.3299 127.522 93.4489 125.934C92.5679 124.336 92.1274 122.495 92.1274 120.409C92.1274 118.256 92.5938 116.376 93.5266 114.769C94.4698 113.152 95.7654 111.899 97.4134 111.009C99.0717 110.119 100.979 109.674 103.135 109.674C104.648 109.674 106.006 109.885 107.208 110.306C108.41 110.727 109.436 111.301 110.286 112.028C111.146 112.745 111.805 113.559 112.261 114.468C112.717 115.376 112.955 116.314 112.976 117.28H106.648C106.513 116.716 106.291 116.209 105.98 115.759C105.679 115.31 105.28 114.956 104.783 114.697C104.285 114.429 103.684 114.295 102.979 114.295C102.243 114.295 101.549 114.482 100.896 114.855C100.253 115.219 99.7298 115.836 99.3256 116.706C98.9318 117.567 98.7348 118.744 98.7348 120.237C98.7348 121.509 98.8748 122.538 99.1546 123.322C99.4448 124.097 99.8128 124.69 100.258 125.102C100.714 125.513 101.207 125.791 101.735 125.934C102.264 126.078 102.767 126.149 103.243 126.149C103.668 126.149 104.062 126.092 104.425 125.977C104.788 125.862 105.109 125.714 105.389 125.532C105.669 125.341 105.902 125.13 106.089 124.901C106.285 124.671 106.425 124.437 106.508 124.198L106.773 123.451H102.855V119.691L113.147 119.749V130.713H109.182V128.417C108.809 128.771 108.358 129.149 107.83 129.551C107.312 129.952 106.648 130.297 105.84 130.584C105.031 130.861 104.005 131 102.761 131Z" fill="#3B6A74" fill-opacity="0.26"/>
<path d="M117.227 130.713V109.961H133.831L133.8 114.582H123.322V118.027H132.09V122.533H123.275V126.063H133.862V130.713H117.227Z" fill="#3B6A74" fill-opacity="0.26"/>
<path d="M143.432 109.961C143.598 109.961 144.013 109.961 144.676 109.961C145.339 109.961 146.106 109.961 146.977 109.961C147.858 109.952 148.713 109.952 149.542 109.961C150.371 109.961 151.029 109.971 151.516 109.99C154.222 110.076 156.429 110.564 158.139 111.454C159.86 112.344 161.124 113.544 161.933 115.056C162.741 116.568 163.146 118.304 163.146 120.265C163.146 122.284 162.726 124.083 161.886 125.661C161.047 127.23 159.767 128.465 158.046 129.364C156.326 130.263 154.139 130.713 151.485 130.713H143.432V109.961ZM149.48 114.353V126.322H151.672C152.439 126.322 153.216 126.125 154.004 125.733C154.802 125.331 155.471 124.681 156.01 123.781C156.559 122.882 156.834 121.681 156.834 120.179C156.834 118.907 156.616 117.84 156.181 116.979C155.756 116.108 155.154 115.453 154.377 115.013C153.6 114.573 152.698 114.353 151.672 114.353H149.48Z" fill="#3B6A74" fill-opacity="0.26"/>
<path d="M176.707 131C174.478 131 172.545 130.565 170.908 129.694C169.281 128.814 168.021 127.58 167.13 125.991C166.239 124.403 165.793 122.533 165.793 120.38C165.793 118.218 166.244 116.338 167.145 114.74C168.058 113.133 169.332 111.889 170.97 111.009C172.608 110.119 174.52 109.674 176.707 109.674C178.883 109.674 180.785 110.119 182.413 111.009C184.04 111.889 185.304 113.133 186.206 114.74C187.108 116.338 187.559 118.218 187.559 120.38C187.559 122.523 187.113 124.394 186.221 125.991C185.34 127.58 184.086 128.814 182.459 129.694C180.832 130.565 178.914 131 176.707 131ZM176.707 126.522C177.536 126.522 178.272 126.331 178.914 125.948C179.567 125.556 180.075 124.92 180.438 124.04C180.811 123.15 180.998 121.959 180.998 120.466C180.998 118.926 180.811 117.697 180.438 116.778C180.075 115.85 179.567 115.18 178.914 114.769C178.272 114.358 177.536 114.152 176.707 114.152C175.878 114.152 175.137 114.358 174.484 114.769C173.841 115.18 173.333 115.85 172.96 116.778C172.587 117.697 172.4 118.926 172.4 120.466C172.4 121.959 172.587 123.15 172.96 124.04C173.333 124.92 173.841 125.556 174.484 125.948C175.137 126.331 175.878 126.522 176.707 126.522Z" fill="#3B6A74" fill-opacity="0.26"/>
<path d="M200.817 131C198.588 131 196.655 130.565 195.018 129.694C193.39 128.814 192.131 127.58 191.24 125.991C190.348 124.403 189.903 122.533 189.903 120.38C189.903 118.218 190.354 116.338 191.255 114.74C192.167 113.133 193.442 111.889 195.08 111.009C196.717 110.119 198.63 109.674 200.817 109.674C202.993 109.674 204.895 110.119 206.522 111.009C208.15 111.889 209.414 113.133 210.316 114.74C211.217 116.338 211.668 118.218 211.668 120.38C211.668 122.523 211.223 124.394 210.331 125.991C209.45 127.58 208.196 128.814 206.569 129.694C204.942 130.565 203.024 131 200.817 131ZM200.817 126.522C201.646 126.522 202.382 126.331 203.024 125.948C203.677 125.556 204.185 124.92 204.548 124.04C204.921 123.15 205.108 121.959 205.108 120.466C205.108 118.926 204.921 117.697 204.548 116.778C204.185 115.85 203.677 115.18 203.024 114.769C202.382 114.358 201.646 114.152 200.817 114.152C199.987 114.152 199.246 114.358 198.593 114.769C197.951 115.18 197.443 115.85 197.07 116.778C196.697 117.697 196.51 118.926 196.51 120.466C196.51 121.959 196.697 123.15 197.07 124.04C197.443 124.92 197.951 125.556 198.593 125.948C199.246 126.331 199.987 126.522 200.817 126.522Z" fill="#3B6A74" fill-opacity="0.26"/>
<path d="M233.781 130.713H227.578L224.313 123.566H221.141V130.713H215.094V109.961H225.292C227.241 109.961 228.806 110.258 229.987 110.851C231.179 111.444 232.045 112.248 232.584 113.262C233.123 114.267 233.392 115.396 233.392 116.649C233.392 117.711 233.237 118.62 232.926 119.376C232.625 120.122 232.205 120.763 231.666 121.299C231.138 121.825 230.526 122.284 229.832 122.676L233.781 130.713ZM224.608 119.404C225.386 119.404 226.028 119.122 226.536 118.558C227.054 117.993 227.313 117.376 227.313 116.706C227.313 115.989 227.034 115.376 226.474 114.869C225.914 114.353 225.292 114.094 224.608 114.094H221.141V119.404H224.608Z" fill="#3B6A74" fill-opacity="0.26"/>
<path d="M262.051 130.713H255.847L252.583 123.566H249.411V130.713H243.363V109.961H253.562C255.511 109.961 257.076 110.258 258.257 110.851C259.449 111.444 260.315 112.248 260.854 113.262C261.393 114.267 261.662 115.396 261.662 116.649C261.662 117.711 261.507 118.62 261.196 119.376C260.895 120.122 260.475 120.763 259.936 121.299C259.408 121.825 258.796 122.284 258.102 122.676L262.051 130.713ZM252.878 119.404C253.655 119.404 254.298 119.122 254.806 118.558C255.324 117.993 255.583 117.376 255.583 116.706C255.583 115.989 255.303 115.376 254.744 114.869C254.184 114.353 253.562 114.094 252.878 114.094H249.411V119.404H252.878Z" fill="#3B6A74" fill-opacity="0.26"/>
<path d="M265.56 130.713V109.961H282.164L282.133 114.582H271.655V118.027H280.423V122.533H271.608V126.063H282.195V130.713H265.56Z" fill="#3B6A74" fill-opacity="0.26"/>
<path d="M285.692 130.713V109.961H294.585C296.243 109.961 297.736 110.234 299.062 110.779C300.4 111.325 301.457 112.124 302.234 113.176C303.011 114.219 303.4 115.491 303.4 116.993C303.4 118.361 303.074 119.538 302.421 120.524C301.768 121.5 300.84 122.251 299.638 122.777C298.435 123.303 297.01 123.566 295.362 123.566H291.74V130.713H285.692ZM291.678 119.404H295.176C295.943 119.404 296.58 119.122 297.088 118.558C297.596 117.993 297.85 117.376 297.85 116.706C297.85 115.989 297.57 115.376 297.01 114.869C296.461 114.353 295.849 114.094 295.176 114.094H291.678V119.404Z" fill="#3B6A74" fill-opacity="0.26"/>
<path d="M302.4 130.713L310.36 109.961H316.548L324.508 130.713H318.538L317.045 126.695H309.956L308.432 130.713H302.4ZM311.231 121.93H315.677L313.47 115.3L311.231 121.93Z" fill="#3B6A74" fill-opacity="0.26"/>
<path d="M327.08 109.961H333.127V130.713H327.08V109.961Z" fill="#3B6A74" fill-opacity="0.26"/>
<path d="M356 130.713H349.797L346.532 123.566H343.36V130.713H337.313V109.961H347.511C349.46 109.961 351.025 110.258 352.207 110.851C353.398 111.444 354.264 112.248 354.803 113.262C355.342 114.267 355.611 115.396 355.611 116.649C355.611 117.711 355.456 118.62 355.145 119.376C354.844 120.122 354.425 120.763 353.886 121.299C353.357 121.825 352.746 122.284 352.051 122.676L356 130.713ZM346.827 119.404C347.605 119.404 348.247 119.122 348.755 118.558C349.273 117.993 349.533 117.376 349.533 116.706C349.533 115.989 349.253 115.376 348.693 114.869C348.133 114.353 347.511 114.094 346.827 114.094H343.36V119.404H346.827Z" fill="#3B6A74" fill-opacity="0.26"/>
<path d="M80.7138 0V66.7189H61.6862L80.7138 97.1841H49.4103L30.3828 66.7189H30.0759V97.1841H0V0H80.7138ZM50.6379 13.4047H29.769V53.3142H50.6379V13.4047Z" fill="#3B6A74" fill-opacity="0.26"/>
<path d="M172.169 0V97.1841H91.1484V0H172.169ZM121.224 13.4047V83.7794H142.093V13.4047H121.224Z" fill="#3B6A74" fill-opacity="0.26"/>
<path d="M263.624 0V39.9095H233.548V13.4047H212.679V83.7794H233.548V53.3142H263.624V97.1841H182.604V0H263.624Z" fill="#3B6A74" fill-opacity="0.26"/>
<path d="M304.134 0V38.9955L325.003 23.7629V0H355.079V29.8559L328.686 48.1351L355.079 66.7189V97.4887H325.003V73.7259L304.134 58.4932V97.1841H274.059V0H304.134Z" fill="#3B6A74" fill-opacity="0.26"/>
</svg>
