<svg width="223" height="84" viewBox="0 0 223 84" fill="none" xmlns="http://www.w3.org/2000/svg">
<mask id="path-1-outside-1_1217_746" maskUnits="userSpaceOnUse" x="64.7597" y="-0.235884" width="159.324" height="58.6713" fill="black">
<rect fill="white" x="64.7597" y="-0.235884" width="159.324" height="58.6713"/>
<path d="M77.9069 55.6519C76.8417 55.8329 75.829 55.742 74.8687 55.3792C73.9297 55.0128 73.0753 54.4347 72.3055 53.645C71.5569 52.8516 70.9215 51.8856 70.3992 50.747C69.8946 49.5834 69.5478 48.3163 69.3587 46.9457C69.1841 45.6603 69.1085 44.2485 69.132 42.7103C69.1768 41.1684 69.3388 39.6066 69.6179 38.0249C69.8934 36.4219 70.2863 34.8647 70.7966 33.3533C71.3245 31.817 71.988 30.433 72.7869 29.2013C73.5858 27.9697 74.5274 26.9329 75.6117 26.0911C76.6924 25.228 77.9464 24.6751 79.3737 24.4326C80.2471 24.2841 81.0128 24.3403 81.6709 24.6011C82.3466 24.8369 82.9144 25.2116 83.3743 25.7253C83.8555 26.2353 84.2322 26.8397 84.5044 27.5387C84.7766 28.2376 84.9654 28.9617 85.0708 29.7109C85.1477 30.4212 85.157 31.1209 85.0988 31.8103C85.0619 32.496 84.9396 33.1305 84.7319 33.7138C84.5419 34.2721 84.261 34.7472 83.8892 35.1392C83.5352 35.5062 83.0919 35.735 82.5593 35.8255C82.3 35.8476 82.0406 35.8041 81.7809 35.6948C81.5461 35.6031 81.2899 35.4494 81.0121 35.2336C80.7556 35.0142 80.4899 34.6758 80.2149 34.2184C80.7503 33.8863 81.1288 33.4056 81.3506 32.7761C81.5901 32.1217 81.7407 31.4605 81.8025 30.7924C81.8712 30.0355 81.8614 29.2043 81.7733 28.2987C81.6674 27.4181 81.3777 26.8098 80.9042 26.4738C80.4307 26.1379 79.9383 26.0133 79.427 26.1002C78.4258 26.2704 77.46 26.9715 76.5296 28.2036C75.5993 29.4357 74.8069 31.0279 74.1524 32.9803C73.5156 34.9077 73.0679 37.1098 72.8094 39.5866C72.5722 42.0598 72.6248 44.6263 72.9672 47.2859C73.1273 48.4861 73.3739 49.4853 73.7068 50.2835C74.061 51.0781 74.4645 51.7109 74.9171 52.1819C75.3911 52.6493 75.8823 52.9604 76.3908 53.115C76.8993 53.2697 77.3878 53.3072 77.8565 53.2276C78.6021 53.1009 79.2779 52.8216 79.884 52.3899C80.4901 51.9581 81.0196 51.4626 81.4725 50.9034C81.9467 50.3407 82.3321 49.771 82.6286 49.1946C82.9501 48.6359 83.1848 48.1467 83.3327 47.727C83.4347 47.4247 83.5655 47.2272 83.7251 47.1343C83.8846 47.0414 84.0374 47.0374 84.1833 47.1222C84.3256 47.1857 84.4361 47.3203 84.515 47.5261C84.5901 47.7106 84.5874 47.9521 84.5066 48.2508C84.2676 49.0366 83.9433 49.8369 83.5338 50.6517C83.1457 51.4629 82.6703 52.2122 82.1076 52.8996C81.5699 53.6047 80.9484 54.2035 80.243 54.696C79.5377 55.1885 78.759 55.5071 77.9069 55.6519Z"/>
<path d="M103.46 38.6515C103.234 39.1282 102.941 39.7259 102.581 40.4447C102.218 41.1421 101.834 41.8538 101.432 42.5798C101.047 43.2808 100.655 43.9393 100.255 44.5551C99.8734 45.146 99.5409 45.5751 99.2575 45.8425C99.0662 46.0065 98.8393 46.1546 98.5769 46.2869C98.3144 46.4192 98.0359 46.5213 97.7413 46.5933C97.468 46.6617 97.1981 46.6856 96.9316 46.6652C96.6687 46.666 96.4305 46.6188 96.2171 46.5236C96 46.407 95.8041 46.2212 95.6292 45.966C95.4828 45.7497 95.3238 45.4589 95.1521 45.0936C95.0018 44.7246 94.8884 44.2508 94.8119 43.672C94.4455 44.611 93.9932 45.3673 93.455 45.9409C92.9133 46.4933 92.3836 46.923 91.8659 47.2302C91.2667 47.5731 90.6511 47.8202 90.0193 47.9714C89.721 48.0221 89.3834 47.9699 89.0064 47.8148C88.6329 47.681 88.2928 47.421 87.9861 47.0348C87.6758 46.6272 87.4307 46.0881 87.2509 45.4172C87.0675 44.7251 87.0116 43.8798 87.083 42.8814C87.1604 41.5312 87.4281 40.2693 87.8861 39.0955C88.3655 37.9182 88.9253 36.8915 89.5655 36.0156C90.202 35.1184 90.8605 34.4147 91.5409 33.9045C92.2214 33.3943 92.8102 33.1189 93.3074 33.0783C93.9006 33.087 94.3983 33.1778 94.8002 33.3506C95.1347 33.5129 95.3807 33.7999 95.5383 34.2114C95.7136 34.5981 95.6355 35.1703 95.304 35.928C95.5914 35.8134 95.8291 35.7292 96.0172 35.6753C96.2267 35.6178 96.3846 35.58 96.4911 35.5619C96.6189 35.5401 96.706 35.5363 96.7522 35.5504C96.7807 35.5894 96.8077 35.6834 96.833 35.8325C96.8547 35.9603 96.8644 36.2107 96.8621 36.5838C96.8597 36.9568 96.8471 37.463 96.8243 38.1025C96.8015 38.742 96.7668 39.5698 96.7203 40.586C96.7103 40.7849 96.6985 40.9732 96.6848 41.1509C96.6889 41.3036 96.6841 41.4688 96.6704 41.6465C96.6745 41.7992 96.6733 41.9857 96.6669 42.206C96.6605 42.4263 96.6525 42.7016 96.6429 43.032C96.6542 43.2274 96.6797 43.4422 96.7195 43.6765C96.777 43.8859 96.854 44.0811 96.9505 44.2619C97.047 44.4428 97.17 44.5863 97.3196 44.6924C97.4868 44.7735 97.6982 44.7924 97.9539 44.7489C98.1669 44.7127 98.4221 44.5379 98.7195 44.2243C99.0133 43.8894 99.3175 43.487 99.6322 43.0171C99.9432 42.5259 100.259 42.0009 100.581 41.4422C100.92 40.8585 101.231 40.3016 101.513 39.7714C101.796 39.2412 102.045 38.7714 102.26 38.3622C102.497 37.9494 102.665 37.6469 102.764 37.4548C102.901 37.2341 103.054 37.0986 103.221 37.0483C103.384 36.9768 103.519 36.9977 103.626 37.111C103.733 37.2243 103.776 37.4142 103.755 37.6807C103.756 37.9436 103.658 38.2672 103.46 38.6515ZM94.3365 41.6486C94.3706 41.2045 94.4134 40.6821 94.4647 40.0816C94.5161 39.4811 94.5498 38.9055 94.5658 38.3548C94.5818 37.8042 94.5821 37.3548 94.5668 37.0067C94.5692 36.6337 94.5296 36.4651 94.448 36.5009C94.3451 36.5403 94.2333 36.5922 94.1128 36.6565C94.0135 36.7172 93.8805 36.7727 93.7136 36.8229C93.5468 36.8732 93.3819 36.9341 93.2187 37.0057C93.3312 36.6359 93.38 36.3427 93.3651 36.126C93.3678 35.8844 93.3477 35.7016 93.3047 35.5774C93.2581 35.4319 93.1955 35.3219 93.1171 35.2476C92.8502 35.0957 92.462 35.3261 91.9524 35.9387C91.4605 36.5264 90.9451 37.5565 90.4063 39.0289C90.1809 39.6371 90.0267 40.277 89.9436 40.9486C89.8568 41.599 89.8179 42.2084 89.8268 42.7767C89.8571 43.3414 89.9297 43.8332 90.0447 44.252C90.1561 44.6495 90.2866 44.9013 90.4361 45.0074C90.7103 45.2019 90.9964 45.2738 91.2947 45.2231C91.5893 45.1512 91.8731 45.0153 92.146 44.8155C92.4365 44.5907 92.7092 44.3252 92.964 44.0189C93.2401 43.709 93.4718 43.3956 93.659 43.0788C93.8676 42.7585 94.0265 42.4684 94.1358 42.2088C94.2664 41.9455 94.3333 41.7588 94.3365 41.6486Z"/>
<path d="M101.997 44.9166C102.265 40.8163 102.473 37.5261 102.621 35.0461C102.791 32.5624 102.918 30.6668 103.003 29.3593C103.09 27.8102 103.149 26.7372 103.179 26.1403C103.174 25.7247 103.16 25.3215 103.138 24.9308C103.122 24.5827 103.084 24.2276 103.022 23.8655C102.961 23.5033 102.873 23.1786 102.758 22.8912C102.91 22.7557 103.077 22.6397 103.258 22.5432C103.46 22.4431 103.653 22.3555 103.838 22.2803C104.061 22.1766 104.287 22.0835 104.514 22.001C104.741 21.9186 104.95 21.8611 105.142 21.8285C105.312 21.7996 105.476 21.7937 105.632 21.811C105.785 21.8069 105.892 21.8546 105.952 21.9538C106.098 22.0386 106.188 22.2426 106.221 22.5658C106.275 22.8853 106.31 23.2191 106.325 23.5672C106.309 23.9864 106.287 24.4394 106.26 24.9262C106.16 25.8856 106.033 27.2661 105.879 29.0677C105.745 30.6027 105.564 32.6939 105.334 35.3411C105.126 37.9848 104.86 41.3177 104.535 45.3401C104.447 45.4647 104.331 45.561 104.19 45.6289C104.048 45.6969 103.913 45.7417 103.785 45.7634C103.636 45.7888 103.474 45.8053 103.3 45.8129C103.144 45.7957 102.984 45.7571 102.82 45.6972C102.678 45.6337 102.53 45.5383 102.377 45.4109C102.228 45.3048 102.101 45.14 101.997 44.9166Z"/>
<path d="M109.319 43.6723C109.586 39.572 109.794 36.2818 109.942 33.8018C110.112 31.3182 110.239 29.4226 110.324 28.115C110.411 26.5659 110.47 25.4929 110.5 24.896C110.495 24.4804 110.482 24.0772 110.459 23.6866C110.444 23.3385 110.405 22.9834 110.344 22.6212C110.282 22.2591 110.194 21.9343 110.079 21.6469C110.232 21.5114 110.398 21.3955 110.579 21.299C110.781 21.1989 110.975 21.1112 111.159 21.036C111.383 20.9323 111.608 20.8392 111.835 20.7568C112.062 20.6743 112.272 20.6168 112.463 20.5843C112.634 20.5553 112.797 20.5494 112.953 20.5667C113.106 20.5627 113.213 20.6103 113.274 20.7096C113.42 20.7943 113.509 20.9983 113.542 21.3215C113.596 21.641 113.631 21.9748 113.646 22.3229C113.63 22.7421 113.608 23.1951 113.581 23.6819C113.482 24.6414 113.355 26.0219 113.2 27.8234C113.067 29.3585 112.885 31.4496 112.656 34.0969C112.447 36.7405 112.181 40.0735 111.856 44.0958C111.768 44.2204 111.653 44.3167 111.511 44.3846C111.369 44.4526 111.234 44.4974 111.106 44.5191C110.957 44.5445 110.796 44.561 110.622 44.5686C110.465 44.5514 110.305 44.5128 110.142 44.453C109.999 44.3895 109.852 44.294 109.698 44.1666C109.549 44.0605 109.422 43.8958 109.319 43.6723Z"/>
<path d="M126.909 41.5047C126.695 40.1164 126.59 38.337 126.593 36.1665C126.584 34.3051 126.67 31.9123 126.853 28.9881C127.035 26.0639 127.408 22.5157 127.97 18.3434C128.04 18.1123 128.169 17.904 128.357 17.7187C128.566 17.5298 128.778 17.3621 128.995 17.2158C129.232 17.0658 129.505 16.9317 129.814 16.8135C130.101 16.6989 130.38 16.5968 130.65 16.5071C130.877 16.4247 131.118 16.3618 131.374 16.3183C131.629 16.2749 131.846 16.26 132.024 16.2736C131.597 18.275 131.247 20.0878 130.975 21.7121C130.7 23.3151 130.486 24.6994 130.333 25.8651C130.149 27.2333 130.015 28.4398 129.929 29.4845C129.748 30.6112 129.62 31.7288 129.545 32.8374C129.471 33.9459 129.43 34.994 129.422 35.9816C129.432 36.9443 129.458 37.8056 129.5 38.5657C129.563 39.3222 129.63 39.9134 129.703 40.3395C129.941 41.614 130.324 42.579 130.852 43.2345C131.384 43.9113 132.107 44.1719 133.023 44.0162C133.79 43.8859 134.442 43.4025 134.98 42.5659C135.538 41.7258 136.006 40.7367 136.382 39.5988C136.776 38.4359 137.073 37.2129 137.271 35.9299C137.469 34.6468 137.594 33.5079 137.644 32.5131C137.657 32.3354 137.66 32.0939 137.652 31.7884C137.705 30.4205 137.785 28.8945 137.893 27.2104C137.978 25.7714 138.095 24.0748 138.245 22.1205C138.416 20.1626 138.622 18.0234 138.864 15.7029C139.005 15.5035 139.173 15.3325 139.368 15.1898C139.563 15.047 139.74 14.9293 139.9 14.8364C140.098 14.715 140.302 14.6255 140.512 14.568C140.718 14.4892 140.938 14.4299 141.172 14.39C141.364 14.3575 141.591 14.3408 141.854 14.3399C142.113 14.3178 142.378 14.3276 142.648 14.3693C142.417 15.5921 142.207 16.8663 142.015 18.1919C141.821 19.4963 141.654 20.7082 141.516 21.8276C141.342 23.1283 141.188 24.4148 141.054 25.687C140.824 27.304 140.666 28.7557 140.577 30.0419C140.485 31.3069 140.432 32.4775 140.418 33.5539C140.421 34.6054 140.446 35.5876 140.491 36.5004C140.555 37.3883 140.616 38.2655 140.676 39.1321C140.728 39.8247 140.826 40.4656 140.97 41.0548C141.103 41.5801 141.268 42.1 141.465 42.6145C141.662 43.1289 141.93 43.5437 142.268 43.8588C142.187 44.026 142.056 44.1579 141.875 44.2544C141.694 44.3509 141.501 44.4385 141.295 44.5173C141.068 44.5997 140.816 44.6645 140.539 44.7116C139.985 44.8057 139.51 44.5248 139.114 43.8689C138.742 43.2306 138.417 42.1571 138.139 40.6482C138.026 41.018 137.832 41.4893 137.557 42.0621C137.285 42.6563 136.914 43.2454 136.444 43.8294C135.998 44.4312 135.444 44.9747 134.781 45.46C134.118 45.9452 133.34 46.2639 132.445 46.4159C131.55 46.568 130.778 46.5349 130.127 46.3168C129.501 46.1163 128.962 45.7805 128.509 45.3095C128.081 44.8562 127.733 44.2907 127.464 43.613C127.221 42.9531 127.036 42.2503 126.909 41.5047Z"/>
<path d="M149.814 36.1982C149.956 36.2617 150.123 36.2772 150.315 36.2446C150.528 36.2084 150.723 36.1314 150.9 36.0136C151.099 35.8922 151.271 35.7424 151.416 35.5643C151.582 35.3826 151.688 35.1674 151.733 34.9186C151.779 34.6698 151.723 34.3396 151.565 33.928C151.404 33.4951 151.186 33.05 150.911 32.5926C150.653 32.1103 150.375 31.6316 150.075 31.1566C149.775 30.6815 149.514 30.2436 149.293 29.8429C149.111 29.5451 148.953 29.265 148.821 29.0025C148.696 28.7827 148.573 28.5735 148.451 28.3749C148.348 28.1515 148.267 28.0007 148.21 27.9228C148.133 28.1113 147.988 28.4208 147.776 28.8513C147.586 29.2782 147.367 29.7318 147.12 30.2122C146.89 30.6676 146.668 31.1 146.453 31.5092C146.234 31.8971 146.082 32.164 145.997 32.3099C145.859 32.5306 145.709 32.6767 145.545 32.7483C145.4 32.7949 145.267 32.7847 145.146 32.7176C145.021 32.6292 144.934 32.5016 144.883 32.3348C144.851 32.1431 144.898 31.9049 145.025 31.6203C145.124 31.4282 145.27 31.1293 145.464 30.7237C145.655 30.2968 145.845 29.8699 146.036 29.443C146.223 28.9948 146.397 28.6035 146.559 28.2691C146.718 27.9133 146.803 27.7017 146.813 27.6342C146.827 27.4565 146.725 27.2437 146.507 26.9957C146.311 26.7441 146.236 26.4282 146.281 26.048C146.315 25.7352 146.449 25.3618 146.682 24.9277C146.911 24.4722 147.201 24.0504 147.552 23.662C147.902 23.2737 148.278 22.9688 148.679 22.7472C149.076 22.5044 149.459 22.4392 149.829 22.5517C150.135 22.6751 150.391 22.8288 150.598 23.0129C150.801 23.1756 150.899 23.3671 150.893 23.5874C150.868 23.7012 150.828 23.8505 150.771 24.0354C150.715 24.2203 150.624 24.455 150.497 24.7396C150.366 25.0029 150.174 25.3535 149.919 25.7912C150.066 26.2703 150.228 26.7032 150.403 27.0898C150.6 27.4729 150.776 27.8044 150.934 28.0846C151.123 28.425 151.318 28.7317 151.517 29.0046C151.774 29.3554 152.044 29.7151 152.325 30.0837C152.607 30.4522 152.868 30.8244 153.107 31.2002C153.343 31.5547 153.543 31.8933 153.707 32.216C153.871 32.5387 153.952 32.8209 153.949 33.0625C153.947 33.4355 153.83 33.9048 153.597 34.4703C153.386 35.0323 153.087 35.5981 152.702 36.1677C152.334 36.7124 151.881 37.2058 151.342 37.648C150.825 38.0866 150.247 38.3602 149.608 38.4688C149.161 38.5449 148.7 38.4806 148.227 38.2761C147.775 38.068 147.37 37.8082 147.01 37.4967C146.668 37.1603 146.391 36.8237 146.181 36.4869C145.991 36.1465 145.934 35.8714 146.008 35.6615C146.092 35.3842 146.175 35.1619 146.256 34.9947C146.337 34.8275 146.468 34.6299 146.648 34.402C146.723 34.3236 146.817 34.2309 146.93 34.124C147.026 34.042 147.164 33.9527 147.345 33.8562C147.525 33.7597 147.736 33.6472 147.978 33.5185C148.303 34.1427 148.583 34.632 148.819 34.9865C149.051 35.3197 149.238 35.5837 149.381 35.7786C149.549 35.9913 149.693 36.1311 149.814 36.1982Z"/>
<path d="M168.916 18.5517C168.875 18.9532 168.83 19.5306 168.783 20.2839C168.753 21.0122 168.721 21.8507 168.684 22.7993C168.67 23.7442 168.643 24.7461 168.603 25.8048C168.582 26.8386 168.569 27.86 168.565 28.8689C168.583 29.8741 168.602 30.8243 168.622 31.7195C168.639 32.5933 168.688 33.3303 168.768 33.9304C168.859 34.5944 168.969 35.2441 169.099 35.8796C169.215 36.4298 169.344 36.9995 169.488 37.5888C169.657 38.1957 169.856 38.7208 170.085 39.1641C169.752 39.3961 169.452 39.5676 169.186 39.6785C168.924 39.8108 168.711 39.9127 168.548 39.9843C168.342 40.0631 168.164 40.1152 168.015 40.1405C167.845 40.1695 167.639 40.1826 167.397 40.1798C167.159 40.1983 166.928 40.128 166.704 39.9689C166.48 39.8097 166.269 39.5387 166.072 39.1556C165.876 38.7726 165.734 38.194 165.646 37.4199C165.58 36.905 165.557 36.2514 165.576 35.4592C165.577 34.6919 165.597 33.8446 165.637 32.9173C165.673 31.9687 165.727 30.9952 165.798 29.9967C165.887 28.9733 165.971 27.9837 166.05 27.0279C166.125 26.0508 166.188 25.1305 166.238 24.2671C166.31 23.4001 166.37 22.6557 166.417 22.0339C166.479 21.2344 166.54 20.3035 166.6 19.2411C166.708 17.4255 166.87 14.7021 167.086 11.0709C167.217 10.939 167.36 10.816 167.516 10.7018C167.668 10.5664 167.803 10.4558 167.92 10.3702C168.055 10.2596 168.193 10.1704 168.335 10.1024C168.973 9.73095 169.447 9.61753 169.756 9.76219C170.087 9.90323 170.323 10.2577 170.463 10.8256C170.55 11.2055 170.686 11.7521 170.873 12.4655C171.082 13.1753 171.294 13.9722 171.51 14.856C171.726 15.7399 171.937 16.6575 172.142 17.6089C172.344 18.5389 172.514 19.4087 172.651 20.2182C172.742 20.7508 172.859 21.3774 173.004 22.0981C173.148 22.8188 173.31 23.5802 173.491 24.3825C173.671 25.1847 173.865 26.0065 174.074 26.8477C174.279 27.6677 174.489 28.4539 174.705 29.2063C174.92 29.9587 175.125 30.6472 175.319 31.2718C175.534 31.8928 175.729 32.3966 175.905 32.7832C175.976 32.9464 176.046 33.0989 176.114 33.2408C176.203 33.3791 176.282 33.5191 176.35 33.661C176.391 33.128 176.426 32.4974 176.456 31.769C176.506 31.0371 176.55 30.2625 176.587 29.4454C176.641 28.6033 176.682 27.7524 176.712 26.8926C176.737 26.0115 176.751 25.1873 176.752 24.42C176.757 23.8054 176.744 23.0186 176.712 22.0596C176.681 21.1006 176.658 20.0633 176.644 18.9479C176.395 18.9025 176.157 18.8554 175.929 18.8063C175.723 18.7537 175.513 18.6798 175.3 18.5846C175.086 18.4893 174.901 18.3674 174.744 18.2187C174.719 17.9381 174.706 17.7321 174.705 17.6007C174.726 17.4656 174.831 17.4369 175.019 17.5144C175.158 17.5566 175.362 17.5986 175.632 17.6403C175.924 17.6785 176.254 17.6881 176.624 17.6691C176.629 17.0546 176.645 16.4382 176.671 15.82C176.719 15.1982 176.77 14.5977 176.825 14.0184C176.904 13.0626 177.031 12.1972 177.206 11.4222C177.377 10.6259 177.611 9.93958 177.908 9.36315C178.226 8.7831 178.627 8.30935 179.113 7.9419C179.598 7.57446 180.191 7.32034 180.89 7.17957C181.551 7.06733 182.13 7.25376 182.629 7.73884C183.146 8.199 183.486 9.10554 183.65 10.4585C183.778 11.4669 183.719 12.4085 183.473 13.2832C183.245 14.1329 182.917 14.9119 182.489 15.6202C182.058 16.3072 181.557 16.9074 180.987 17.4207C180.413 17.9128 179.853 18.2929 179.307 18.5611C179.285 19.5949 179.276 20.6376 179.279 21.689C179.279 22.7192 179.275 23.7281 179.268 24.7157C179.278 25.6784 179.27 26.6002 179.245 27.4813C179.24 28.3587 179.22 29.1403 179.183 29.8261C179.142 30.4905 179.1 31.21 179.057 31.9845C179.016 32.649 178.96 33.4147 178.888 34.2817C178.816 35.1487 178.741 36.0601 178.662 37.0159C178.61 37.2222 178.53 37.4 178.424 37.5496C178.322 37.7204 178.214 37.8593 178.101 37.9662C177.97 38.0981 177.835 38.2086 177.697 38.2979C177.3 38.5407 176.943 38.6342 176.626 38.5784C176.31 38.5226 175.995 38.2802 175.681 37.8514C175.363 37.4013 175.047 36.8303 174.732 36.1386C174.439 35.4433 174.124 34.6859 173.787 33.8664C173.44 32.9829 173.122 32.0177 172.835 30.9707C172.565 29.8987 172.304 28.8143 172.052 27.7174C171.817 26.5956 171.595 25.4827 171.386 24.3785C171.176 23.2744 170.956 22.2378 170.726 21.2688C170.402 20.0087 170.102 18.8871 169.825 17.904C169.545 16.8996 169.281 16.0567 169.034 15.3755C169.021 15.816 169.007 16.3116 168.991 16.8623C168.975 17.4129 168.95 17.9761 168.916 18.5517ZM179.424 15.3849C179.387 15.8078 179.367 16.2057 179.364 16.5787C179.825 16.1936 180.241 15.7393 180.612 15.2159C180.98 14.6712 181.28 14.1161 181.513 13.5505C181.745 12.985 181.903 12.4321 181.987 11.8918C182.092 11.348 182.119 10.8612 182.068 10.4316C182.038 10.1297 181.966 9.9008 181.852 9.74486C181.756 9.56399 181.612 9.48986 181.42 9.52244C181.313 9.54054 181.154 9.63341 180.941 9.80105C180.746 9.94377 180.543 10.2304 180.331 10.6609C180.116 11.0701 179.919 11.6516 179.74 12.4052C179.583 13.1553 179.477 14.1485 179.424 15.3849Z"/>
<path d="M192.955 24.7566C192.88 25.6023 192.721 26.4074 192.478 27.1719C192.236 27.9365 191.902 28.6178 191.478 29.216C191.075 29.8105 190.577 30.3006 189.985 30.6861C189.418 31.0893 188.762 31.3543 188.016 31.481C187.143 31.6295 186.418 31.5554 185.841 31.2588C185.29 30.98 184.839 30.5853 184.489 30.0749C184.161 29.5608 183.919 28.9773 183.764 28.3241C183.588 27.6746 183.451 27.0622 183.354 26.4871C183.285 26.0823 183.262 25.6259 183.285 25.1179C183.287 24.6134 183.33 24.0911 183.414 23.5508C183.497 23.0106 183.623 22.4632 183.792 21.9084C183.982 21.3501 184.222 20.8272 184.512 20.3396C184.578 19.9557 184.715 19.6036 184.924 19.2832C185.154 18.9592 185.425 18.683 185.736 18.4547C186.066 18.2014 186.426 17.9977 186.816 17.8437C187.203 17.6684 187.588 17.5482 187.971 17.483C188.035 17.4722 188.09 17.4738 188.137 17.4878C188.204 17.4983 188.272 17.5087 188.339 17.5192C188.62 17.4934 188.979 17.542 189.416 17.6649C189.875 17.7842 190.328 18.003 190.777 18.3213C191.247 18.636 191.671 19.068 192.049 19.6174C192.424 20.1455 192.682 20.825 192.823 21.6558C192.852 21.8262 192.878 22.041 192.9 22.3003C192.918 22.5383 192.931 22.7442 192.939 22.9183C193.396 22.6433 193.868 22.3221 194.353 21.9546C194.839 21.5872 195.301 21.2127 195.74 20.8312C196.197 20.4248 196.612 20.0256 196.983 19.6336C197.355 19.2417 197.647 18.8962 197.859 18.5971C198.04 18.3692 198.203 18.2319 198.348 18.1852C198.494 18.1386 198.608 18.1631 198.69 18.2587C198.772 18.3544 198.808 18.5017 198.798 18.7007C198.788 18.8996 198.707 19.1326 198.555 19.3995C198.47 19.5454 198.236 19.8481 197.854 20.3076C197.493 20.7634 197.053 21.2657 196.532 21.8145C196.012 22.3632 195.436 22.9103 194.806 23.4558C194.175 24.0014 193.558 24.4349 192.955 24.7566ZM186.73 20.8174C186.698 21.0199 186.701 21.2278 186.737 21.4408C186.795 21.7816 186.878 22.1401 186.986 22.5164C187.09 22.8713 187.252 23.1833 187.474 23.4526C187.695 23.7219 188.004 23.9323 188.403 24.0837C188.819 24.2103 189.357 24.2175 190.017 24.1052C190.124 24.0871 190.23 24.069 190.337 24.0509C190.44 24.0115 190.543 23.9721 190.646 23.9327C190.662 23.6449 190.674 23.3909 190.68 23.1706C190.705 22.9254 190.702 22.7176 190.673 22.5472C190.647 22.1352 190.576 21.7198 190.461 21.301C190.346 20.8822 190.196 20.5132 190.01 20.1941C189.842 19.8501 189.644 19.5878 189.416 19.4074C189.206 19.202 188.973 19.121 188.717 19.1645C188.313 19.2333 187.938 19.4174 187.595 19.7169C187.269 19.9915 186.981 20.3583 186.73 20.8174ZM185.641 26.7888C185.706 27.1723 185.792 27.5521 185.9 27.9283C186.004 28.2832 186.145 28.5989 186.324 28.8754C186.499 29.1306 186.709 29.336 186.955 29.4915C187.197 29.6257 187.488 29.6639 187.829 29.606C188.212 29.5408 188.549 29.3959 188.84 29.1711C189.127 28.9251 189.375 28.6419 189.583 28.3215C189.788 27.9798 189.956 27.6116 190.086 27.2169C190.234 26.7972 190.348 26.3724 190.428 25.9423C190.283 25.9889 190.137 26.0356 189.992 26.0822C189.864 26.1039 189.715 26.1293 189.544 26.1582C188.735 26.2958 187.992 26.181 187.316 25.8137C186.657 25.4215 186.105 24.8797 185.659 24.1884C185.607 24.6575 185.575 25.1123 185.562 25.5529C185.549 25.9934 185.575 26.4054 185.641 26.7888Z"/>
<path d="M213.11 20.871C212.942 21.6886 212.728 22.4921 212.468 23.2815C212.207 24.071 211.892 24.7931 211.521 25.448C211.15 26.1028 210.727 26.6459 210.253 27.0772C209.778 27.5086 209.232 27.7767 208.614 27.8817C207.613 28.0519 206.8 27.8502 206.177 27.2767C205.55 26.6819 205.057 25.9109 204.699 24.9635C204.477 25.4616 204.233 25.9632 203.968 26.4685C203.703 26.9738 203.408 27.4295 203.083 27.8355C202.757 28.2415 202.41 28.5854 202.042 28.8672C201.673 29.149 201.286 29.3243 200.882 29.3931C200.328 29.4872 199.839 29.4497 199.416 29.2806C198.993 29.1114 198.619 28.8462 198.294 28.4849C197.988 28.0986 197.736 27.6483 197.539 27.1338C197.338 26.5981 197.185 26.0213 197.08 25.4035L197.015 25.0201C196.881 24.2319 196.808 23.4115 196.794 22.559C196.781 21.7064 196.789 20.916 196.819 20.1877C196.87 19.4557 196.937 18.8196 197.02 18.2794C197.1 17.7179 197.168 17.3447 197.225 17.1598C197.337 16.9214 197.623 16.6647 198.08 16.3897C198.555 16.0898 199.041 15.9195 199.538 15.8788C199.776 15.8603 199.91 15.9363 199.939 16.1067C199.989 16.2735 200.004 16.4901 199.983 16.7566C199.96 17.1333 199.903 17.7018 199.813 18.4623C199.723 19.2228 199.633 20.049 199.544 20.941C199.476 21.8293 199.427 22.7033 199.398 23.5631C199.369 24.4228 199.401 25.1297 199.495 25.6835C199.611 26.3652 199.801 26.8371 200.064 27.0991C200.328 27.3611 200.684 27.4541 201.131 27.3781C201.664 27.2876 202.199 26.8898 202.736 26.1847C203.295 25.476 203.763 24.3555 204.138 22.8232C204.095 22.6991 204.062 22.573 204.041 22.4452C204.019 22.3174 203.995 22.1789 203.97 22.0298C203.807 21.0712 203.683 20.1498 203.599 19.2655C203.536 18.3776 203.554 17.5854 203.655 16.8888C203.777 16.1886 203.998 15.6142 204.316 15.1655C204.655 14.7133 205.145 14.4329 205.784 14.3243C206.039 14.2808 206.265 14.3192 206.461 14.4393C206.657 14.5595 206.778 14.758 206.825 15.035C206.941 15.7167 206.861 16.7276 206.584 18.0677C206.326 19.3829 205.993 20.8422 205.586 22.4456C205.537 22.5417 205.508 22.6341 205.502 22.723C205.634 23.1169 205.781 23.5302 205.942 23.9631C206.125 24.3924 206.334 24.7842 206.57 25.1387C206.802 25.4719 207.057 25.7464 207.334 25.9622C207.608 26.1567 207.905 26.2268 208.225 26.1725C208.693 26.0929 209.082 25.7968 209.389 25.2843C209.718 24.7681 209.977 24.1651 210.166 23.4754C210.377 22.782 210.54 22.0639 210.655 21.3211C210.766 20.557 210.839 19.8871 210.873 19.3115C210.769 19.0881 210.678 18.8734 210.599 18.6676C210.516 18.4406 210.45 18.1779 210.399 17.8797C210.287 17.2193 210.287 16.6385 210.399 16.1372C210.511 15.636 210.691 15.2109 210.938 14.862C211.203 14.4881 211.494 14.1977 211.809 13.9906C212.146 13.78 212.464 13.6493 212.762 13.5986C213.294 13.5081 213.601 13.6972 213.68 14.1658C213.738 14.5067 213.754 15.1176 213.729 15.9987C213.699 16.8585 213.616 17.8481 213.477 18.9675C213.889 19.0728 214.394 19.0747 214.99 18.9733C215.544 18.8792 216.045 18.7284 216.492 18.5209C216.935 18.2922 217.33 18.0387 217.677 17.7605C218.025 17.4823 218.336 17.1882 218.612 16.8783C218.889 16.5683 219.156 16.2709 219.414 15.9859C219.62 15.7756 219.81 15.7324 219.984 15.8561C220.158 15.9799 220.177 16.2179 220.04 16.57C219.916 16.8759 219.672 17.2461 219.308 17.6807C218.965 18.1116 218.524 18.5482 217.985 18.9904C217.464 19.4077 216.862 19.795 216.177 20.1525C215.51 20.485 214.783 20.7182 213.995 20.8522C213.867 20.8739 213.727 20.8868 213.574 20.8908C213.421 20.8948 213.267 20.8882 213.11 20.871Z"/>
</mask>
<path d="M77.9069 55.6519C76.8417 55.8329 75.829 55.742 74.8687 55.3792C73.9297 55.0128 73.0753 54.4347 72.3055 53.645C71.5569 52.8516 70.9215 51.8856 70.3992 50.747C69.8946 49.5834 69.5478 48.3163 69.3587 46.9457C69.1841 45.6603 69.1085 44.2485 69.132 42.7103C69.1768 41.1684 69.3388 39.6066 69.6179 38.0249C69.8934 36.4219 70.2863 34.8647 70.7966 33.3533C71.3245 31.817 71.988 30.433 72.7869 29.2013C73.5858 27.9697 74.5274 26.9329 75.6117 26.0911C76.6924 25.228 77.9464 24.6751 79.3737 24.4326C80.2471 24.2841 81.0128 24.3403 81.6709 24.6011C82.3466 24.8369 82.9144 25.2116 83.3743 25.7253C83.8555 26.2353 84.2322 26.8397 84.5044 27.5387C84.7766 28.2376 84.9654 28.9617 85.0708 29.7109C85.1477 30.4212 85.157 31.1209 85.0988 31.8103C85.0619 32.496 84.9396 33.1305 84.7319 33.7138C84.5419 34.2721 84.261 34.7472 83.8892 35.1392C83.5352 35.5062 83.0919 35.735 82.5593 35.8255C82.3 35.8476 82.0406 35.8041 81.7809 35.6948C81.5461 35.6031 81.2899 35.4494 81.0121 35.2336C80.7556 35.0142 80.4899 34.6758 80.2149 34.2184C80.7503 33.8863 81.1288 33.4056 81.3506 32.7761C81.5901 32.1217 81.7407 31.4605 81.8025 30.7924C81.8712 30.0355 81.8614 29.2043 81.7733 28.2987C81.6674 27.4181 81.3777 26.8098 80.9042 26.4738C80.4307 26.1379 79.9383 26.0133 79.427 26.1002C78.4258 26.2704 77.46 26.9715 76.5296 28.2036C75.5993 29.4357 74.8069 31.0279 74.1524 32.9803C73.5156 34.9077 73.0679 37.1098 72.8094 39.5866C72.5722 42.0598 72.6248 44.6263 72.9672 47.2859C73.1273 48.4861 73.3739 49.4853 73.7068 50.2835C74.061 51.0781 74.4645 51.7109 74.9171 52.1819C75.3911 52.6493 75.8823 52.9604 76.3908 53.115C76.8993 53.2697 77.3878 53.3072 77.8565 53.2276C78.6021 53.1009 79.2779 52.8216 79.884 52.3899C80.4901 51.9581 81.0196 51.4626 81.4725 50.9034C81.9467 50.3407 82.3321 49.771 82.6286 49.1946C82.9501 48.6359 83.1848 48.1467 83.3327 47.727C83.4347 47.4247 83.5655 47.2272 83.7251 47.1343C83.8846 47.0414 84.0374 47.0374 84.1833 47.1222C84.3256 47.1857 84.4361 47.3203 84.515 47.5261C84.5901 47.7106 84.5874 47.9521 84.5066 48.2508C84.2676 49.0366 83.9433 49.8369 83.5338 50.6517C83.1457 51.4629 82.6703 52.2122 82.1076 52.8996C81.5699 53.6047 80.9484 54.2035 80.243 54.696C79.5377 55.1885 78.759 55.5071 77.9069 55.6519Z" fill="black"/>
<path d="M103.46 38.6515C103.234 39.1282 102.941 39.7259 102.581 40.4447C102.218 41.1421 101.834 41.8538 101.432 42.5798C101.047 43.2808 100.655 43.9393 100.255 44.5551C99.8734 45.146 99.5409 45.5751 99.2575 45.8425C99.0662 46.0065 98.8393 46.1546 98.5769 46.2869C98.3144 46.4192 98.0359 46.5213 97.7413 46.5933C97.468 46.6617 97.1981 46.6856 96.9316 46.6652C96.6687 46.666 96.4305 46.6188 96.2171 46.5236C96 46.407 95.8041 46.2212 95.6292 45.966C95.4828 45.7497 95.3238 45.4589 95.1521 45.0936C95.0018 44.7246 94.8884 44.2508 94.8119 43.672C94.4455 44.611 93.9932 45.3673 93.455 45.9409C92.9133 46.4933 92.3836 46.923 91.8659 47.2302C91.2667 47.5731 90.6511 47.8202 90.0193 47.9714C89.721 48.0221 89.3834 47.9699 89.0064 47.8148C88.6329 47.681 88.2928 47.421 87.9861 47.0348C87.6758 46.6272 87.4307 46.0881 87.2509 45.4172C87.0675 44.7251 87.0116 43.8798 87.083 42.8814C87.1604 41.5312 87.4281 40.2693 87.8861 39.0955C88.3655 37.9182 88.9253 36.8915 89.5655 36.0156C90.202 35.1184 90.8605 34.4147 91.5409 33.9045C92.2214 33.3943 92.8102 33.1189 93.3074 33.0783C93.9006 33.087 94.3983 33.1778 94.8002 33.3506C95.1347 33.5129 95.3807 33.7999 95.5383 34.2114C95.7136 34.5981 95.6355 35.1703 95.304 35.928C95.5914 35.8134 95.8291 35.7292 96.0172 35.6753C96.2267 35.6178 96.3846 35.58 96.4911 35.5619C96.6189 35.5401 96.706 35.5363 96.7522 35.5504C96.7807 35.5894 96.8077 35.6834 96.833 35.8325C96.8547 35.9603 96.8644 36.2107 96.8621 36.5838C96.8597 36.9568 96.8471 37.463 96.8243 38.1025C96.8015 38.742 96.7668 39.5698 96.7203 40.586C96.7103 40.7849 96.6985 40.9732 96.6848 41.1509C96.6889 41.3036 96.6841 41.4688 96.6704 41.6465C96.6745 41.7992 96.6733 41.9857 96.6669 42.206C96.6605 42.4263 96.6525 42.7016 96.6429 43.032C96.6542 43.2274 96.6797 43.4422 96.7195 43.6765C96.777 43.8859 96.854 44.0811 96.9505 44.2619C97.047 44.4428 97.17 44.5863 97.3196 44.6924C97.4868 44.7735 97.6982 44.7924 97.9539 44.7489C98.1669 44.7127 98.4221 44.5379 98.7195 44.2243C99.0133 43.8894 99.3175 43.487 99.6322 43.0171C99.9432 42.5259 100.259 42.0009 100.581 41.4422C100.92 40.8585 101.231 40.3016 101.513 39.7714C101.796 39.2412 102.045 38.7714 102.26 38.3622C102.497 37.9494 102.665 37.6469 102.764 37.4548C102.901 37.2341 103.054 37.0986 103.221 37.0483C103.384 36.9768 103.519 36.9977 103.626 37.111C103.733 37.2243 103.776 37.4142 103.755 37.6807C103.756 37.9436 103.658 38.2672 103.46 38.6515ZM94.3365 41.6486C94.3706 41.2045 94.4134 40.6821 94.4647 40.0816C94.5161 39.4811 94.5498 38.9055 94.5658 38.3548C94.5818 37.8042 94.5821 37.3548 94.5668 37.0067C94.5692 36.6337 94.5296 36.4651 94.448 36.5009C94.3451 36.5403 94.2333 36.5922 94.1128 36.6565C94.0135 36.7172 93.8805 36.7727 93.7136 36.8229C93.5468 36.8732 93.3819 36.9341 93.2187 37.0057C93.3312 36.6359 93.38 36.3427 93.3651 36.126C93.3678 35.8844 93.3477 35.7016 93.3047 35.5774C93.2581 35.4319 93.1955 35.3219 93.1171 35.2476C92.8502 35.0957 92.462 35.3261 91.9524 35.9387C91.4605 36.5264 90.9451 37.5565 90.4063 39.0289C90.1809 39.6371 90.0267 40.277 89.9436 40.9486C89.8568 41.599 89.8179 42.2084 89.8268 42.7767C89.8571 43.3414 89.9297 43.8332 90.0447 44.252C90.1561 44.6495 90.2866 44.9013 90.4361 45.0074C90.7103 45.2019 90.9964 45.2738 91.2947 45.2231C91.5893 45.1512 91.8731 45.0153 92.146 44.8155C92.4365 44.5907 92.7092 44.3252 92.964 44.0189C93.2401 43.709 93.4718 43.3956 93.659 43.0788C93.8676 42.7585 94.0265 42.4684 94.1358 42.2088C94.2664 41.9455 94.3333 41.7588 94.3365 41.6486Z" fill="black"/>
<path d="M101.997 44.9166C102.265 40.8163 102.473 37.5261 102.621 35.0461C102.791 32.5624 102.918 30.6668 103.003 29.3593C103.09 27.8102 103.149 26.7372 103.179 26.1403C103.174 25.7247 103.16 25.3215 103.138 24.9308C103.122 24.5827 103.084 24.2276 103.022 23.8655C102.961 23.5033 102.873 23.1786 102.758 22.8912C102.91 22.7557 103.077 22.6397 103.258 22.5432C103.46 22.4431 103.653 22.3555 103.838 22.2803C104.061 22.1766 104.287 22.0835 104.514 22.001C104.741 21.9186 104.95 21.8611 105.142 21.8285C105.312 21.7996 105.476 21.7937 105.632 21.811C105.785 21.8069 105.892 21.8546 105.952 21.9538C106.098 22.0386 106.188 22.2426 106.221 22.5658C106.275 22.8853 106.31 23.2191 106.325 23.5672C106.309 23.9864 106.287 24.4394 106.26 24.9262C106.16 25.8856 106.033 27.2661 105.879 29.0677C105.745 30.6027 105.564 32.6939 105.334 35.3411C105.126 37.9848 104.86 41.3177 104.535 45.3401C104.447 45.4647 104.331 45.561 104.19 45.6289C104.048 45.6969 103.913 45.7417 103.785 45.7634C103.636 45.7888 103.474 45.8053 103.3 45.8129C103.144 45.7957 102.984 45.7571 102.82 45.6972C102.678 45.6337 102.53 45.5383 102.377 45.4109C102.228 45.3048 102.101 45.14 101.997 44.9166Z" fill="black"/>
<path d="M109.319 43.6723C109.586 39.572 109.794 36.2818 109.942 33.8018C110.112 31.3182 110.239 29.4226 110.324 28.115C110.411 26.5659 110.47 25.4929 110.5 24.896C110.495 24.4804 110.482 24.0772 110.459 23.6866C110.444 23.3385 110.405 22.9834 110.344 22.6212C110.282 22.2591 110.194 21.9343 110.079 21.6469C110.232 21.5114 110.398 21.3955 110.579 21.299C110.781 21.1989 110.975 21.1112 111.159 21.036C111.383 20.9323 111.608 20.8392 111.835 20.7568C112.062 20.6743 112.272 20.6168 112.463 20.5843C112.634 20.5553 112.797 20.5494 112.953 20.5667C113.106 20.5627 113.213 20.6103 113.274 20.7096C113.42 20.7943 113.509 20.9983 113.542 21.3215C113.596 21.641 113.631 21.9748 113.646 22.3229C113.63 22.7421 113.608 23.1951 113.581 23.6819C113.482 24.6414 113.355 26.0219 113.2 27.8234C113.067 29.3585 112.885 31.4496 112.656 34.0969C112.447 36.7405 112.181 40.0735 111.856 44.0958C111.768 44.2204 111.653 44.3167 111.511 44.3846C111.369 44.4526 111.234 44.4974 111.106 44.5191C110.957 44.5445 110.796 44.561 110.622 44.5686C110.465 44.5514 110.305 44.5128 110.142 44.453C109.999 44.3895 109.852 44.294 109.698 44.1666C109.549 44.0605 109.422 43.8958 109.319 43.6723Z" fill="black"/>
<path d="M126.909 41.5047C126.695 40.1164 126.59 38.337 126.593 36.1665C126.584 34.3051 126.67 31.9123 126.853 28.9881C127.035 26.0639 127.408 22.5157 127.97 18.3434C128.04 18.1123 128.169 17.904 128.357 17.7187C128.566 17.5298 128.778 17.3621 128.995 17.2158C129.232 17.0658 129.505 16.9317 129.814 16.8135C130.101 16.6989 130.38 16.5968 130.65 16.5071C130.877 16.4247 131.118 16.3618 131.374 16.3183C131.629 16.2749 131.846 16.26 132.024 16.2736C131.597 18.275 131.247 20.0878 130.975 21.7121C130.7 23.3151 130.486 24.6994 130.333 25.8651C130.149 27.2333 130.015 28.4398 129.929 29.4845C129.748 30.6112 129.62 31.7288 129.545 32.8374C129.471 33.9459 129.43 34.994 129.422 35.9816C129.432 36.9443 129.458 37.8056 129.5 38.5657C129.563 39.3222 129.63 39.9134 129.703 40.3395C129.941 41.614 130.324 42.579 130.852 43.2345C131.384 43.9113 132.107 44.1719 133.023 44.0162C133.79 43.8859 134.442 43.4025 134.98 42.5659C135.538 41.7258 136.006 40.7367 136.382 39.5988C136.776 38.4359 137.073 37.2129 137.271 35.9299C137.469 34.6468 137.594 33.5079 137.644 32.5131C137.657 32.3354 137.66 32.0939 137.652 31.7884C137.705 30.4205 137.785 28.8945 137.893 27.2104C137.978 25.7714 138.095 24.0748 138.245 22.1205C138.416 20.1626 138.622 18.0234 138.864 15.7029C139.005 15.5035 139.173 15.3325 139.368 15.1898C139.563 15.047 139.74 14.9293 139.9 14.8364C140.098 14.715 140.302 14.6255 140.512 14.568C140.718 14.4892 140.938 14.4299 141.172 14.39C141.364 14.3575 141.591 14.3408 141.854 14.3399C142.113 14.3178 142.378 14.3276 142.648 14.3693C142.417 15.5921 142.207 16.8663 142.015 18.1919C141.821 19.4963 141.654 20.7082 141.516 21.8276C141.342 23.1283 141.188 24.4148 141.054 25.687C140.824 27.304 140.666 28.7557 140.577 30.0419C140.485 31.3069 140.432 32.4775 140.418 33.5539C140.421 34.6054 140.446 35.5876 140.491 36.5004C140.555 37.3883 140.616 38.2655 140.676 39.1321C140.728 39.8247 140.826 40.4656 140.97 41.0548C141.103 41.5801 141.268 42.1 141.465 42.6145C141.662 43.1289 141.93 43.5437 142.268 43.8588C142.187 44.026 142.056 44.1579 141.875 44.2544C141.694 44.3509 141.501 44.4385 141.295 44.5173C141.068 44.5997 140.816 44.6645 140.539 44.7116C139.985 44.8057 139.51 44.5248 139.114 43.8689C138.742 43.2306 138.417 42.1571 138.139 40.6482C138.026 41.018 137.832 41.4893 137.557 42.0621C137.285 42.6563 136.914 43.2454 136.444 43.8294C135.998 44.4312 135.444 44.9747 134.781 45.46C134.118 45.9452 133.34 46.2639 132.445 46.4159C131.55 46.568 130.778 46.5349 130.127 46.3168C129.501 46.1163 128.962 45.7805 128.509 45.3095C128.081 44.8562 127.733 44.2907 127.464 43.613C127.221 42.9531 127.036 42.2503 126.909 41.5047Z" fill="black"/>
<path d="M149.814 36.1982C149.956 36.2617 150.123 36.2772 150.315 36.2446C150.528 36.2084 150.723 36.1314 150.9 36.0136C151.099 35.8922 151.271 35.7424 151.416 35.5643C151.582 35.3826 151.688 35.1674 151.733 34.9186C151.779 34.6698 151.723 34.3396 151.565 33.928C151.404 33.4951 151.186 33.05 150.911 32.5926C150.653 32.1103 150.375 31.6316 150.075 31.1566C149.775 30.6815 149.514 30.2436 149.293 29.8429C149.111 29.5451 148.953 29.265 148.821 29.0025C148.696 28.7827 148.573 28.5735 148.451 28.3749C148.348 28.1515 148.267 28.0007 148.21 27.9228C148.133 28.1113 147.988 28.4208 147.776 28.8513C147.586 29.2782 147.367 29.7318 147.12 30.2122C146.89 30.6676 146.668 31.1 146.453 31.5092C146.234 31.8971 146.082 32.164 145.997 32.3099C145.859 32.5306 145.709 32.6767 145.545 32.7483C145.4 32.7949 145.267 32.7847 145.146 32.7176C145.021 32.6292 144.934 32.5016 144.883 32.3348C144.851 32.1431 144.898 31.9049 145.025 31.6203C145.124 31.4282 145.27 31.1293 145.464 30.7237C145.655 30.2968 145.845 29.8699 146.036 29.443C146.223 28.9948 146.397 28.6035 146.559 28.2691C146.718 27.9133 146.803 27.7017 146.813 27.6342C146.827 27.4565 146.725 27.2437 146.507 26.9957C146.311 26.7441 146.236 26.4282 146.281 26.048C146.315 25.7352 146.449 25.3618 146.682 24.9277C146.911 24.4722 147.201 24.0504 147.552 23.662C147.902 23.2737 148.278 22.9688 148.679 22.7472C149.076 22.5044 149.459 22.4392 149.829 22.5517C150.135 22.6751 150.391 22.8288 150.598 23.0129C150.801 23.1756 150.899 23.3671 150.893 23.5874C150.868 23.7012 150.828 23.8505 150.771 24.0354C150.715 24.2203 150.624 24.455 150.497 24.7396C150.366 25.0029 150.174 25.3535 149.919 25.7912C150.066 26.2703 150.228 26.7032 150.403 27.0898C150.6 27.4729 150.776 27.8044 150.934 28.0846C151.123 28.425 151.318 28.7317 151.517 29.0046C151.774 29.3554 152.044 29.7151 152.325 30.0837C152.607 30.4522 152.868 30.8244 153.107 31.2002C153.343 31.5547 153.543 31.8933 153.707 32.216C153.871 32.5387 153.952 32.8209 153.949 33.0625C153.947 33.4355 153.83 33.9048 153.597 34.4703C153.386 35.0323 153.087 35.5981 152.702 36.1677C152.334 36.7124 151.881 37.2058 151.342 37.648C150.825 38.0866 150.247 38.3602 149.608 38.4688C149.161 38.5449 148.7 38.4806 148.227 38.2761C147.775 38.068 147.37 37.8082 147.01 37.4967C146.668 37.1603 146.391 36.8237 146.181 36.4869C145.991 36.1465 145.934 35.8714 146.008 35.6615C146.092 35.3842 146.175 35.1619 146.256 34.9947C146.337 34.8275 146.468 34.6299 146.648 34.402C146.723 34.3236 146.817 34.2309 146.93 34.124C147.026 34.042 147.164 33.9527 147.345 33.8562C147.525 33.7597 147.736 33.6472 147.978 33.5185C148.303 34.1427 148.583 34.632 148.819 34.9865C149.051 35.3197 149.238 35.5837 149.381 35.7786C149.549 35.9913 149.693 36.1311 149.814 36.1982Z" fill="black"/>
<path d="M168.916 18.5517C168.875 18.9532 168.83 19.5306 168.783 20.2839C168.753 21.0122 168.721 21.8507 168.684 22.7993C168.67 23.7442 168.643 24.7461 168.603 25.8048C168.582 26.8386 168.569 27.86 168.565 28.8689C168.583 29.8741 168.602 30.8243 168.622 31.7195C168.639 32.5933 168.688 33.3303 168.768 33.9304C168.859 34.5944 168.969 35.2441 169.099 35.8796C169.215 36.4298 169.344 36.9995 169.488 37.5888C169.657 38.1957 169.856 38.7208 170.085 39.1641C169.752 39.3961 169.452 39.5676 169.186 39.6785C168.924 39.8108 168.711 39.9127 168.548 39.9843C168.342 40.0631 168.164 40.1152 168.015 40.1405C167.845 40.1695 167.639 40.1826 167.397 40.1798C167.159 40.1983 166.928 40.128 166.704 39.9689C166.48 39.8097 166.269 39.5387 166.072 39.1556C165.876 38.7726 165.734 38.194 165.646 37.4199C165.58 36.905 165.557 36.2514 165.576 35.4592C165.577 34.6919 165.597 33.8446 165.637 32.9173C165.673 31.9687 165.727 30.9952 165.798 29.9967C165.887 28.9733 165.971 27.9837 166.05 27.0279C166.125 26.0508 166.188 25.1305 166.238 24.2671C166.31 23.4001 166.37 22.6557 166.417 22.0339C166.479 21.2344 166.54 20.3035 166.6 19.2411C166.708 17.4255 166.87 14.7021 167.086 11.0709C167.217 10.939 167.36 10.816 167.516 10.7018C167.668 10.5664 167.803 10.4558 167.92 10.3702C168.055 10.2596 168.193 10.1704 168.335 10.1024C168.973 9.73095 169.447 9.61753 169.756 9.76219C170.087 9.90323 170.323 10.2577 170.463 10.8256C170.55 11.2055 170.686 11.7521 170.873 12.4655C171.082 13.1753 171.294 13.9722 171.51 14.856C171.726 15.7399 171.937 16.6575 172.142 17.6089C172.344 18.5389 172.514 19.4087 172.651 20.2182C172.742 20.7508 172.859 21.3774 173.004 22.0981C173.148 22.8188 173.31 23.5802 173.491 24.3825C173.671 25.1847 173.865 26.0065 174.074 26.8477C174.279 27.6677 174.489 28.4539 174.705 29.2063C174.92 29.9587 175.125 30.6472 175.319 31.2718C175.534 31.8928 175.729 32.3966 175.905 32.7832C175.976 32.9464 176.046 33.0989 176.114 33.2408C176.203 33.3791 176.282 33.5191 176.35 33.661C176.391 33.128 176.426 32.4974 176.456 31.769C176.506 31.0371 176.55 30.2625 176.587 29.4454C176.641 28.6033 176.682 27.7524 176.712 26.8926C176.737 26.0115 176.751 25.1873 176.752 24.42C176.757 23.8054 176.744 23.0186 176.712 22.0596C176.681 21.1006 176.658 20.0633 176.644 18.9479C176.395 18.9025 176.157 18.8554 175.929 18.8063C175.723 18.7537 175.513 18.6798 175.3 18.5846C175.086 18.4893 174.901 18.3674 174.744 18.2187C174.719 17.9381 174.706 17.7321 174.705 17.6007C174.726 17.4656 174.831 17.4369 175.019 17.5144C175.158 17.5566 175.362 17.5986 175.632 17.6403C175.924 17.6785 176.254 17.6881 176.624 17.6691C176.629 17.0546 176.645 16.4382 176.671 15.82C176.719 15.1982 176.77 14.5977 176.825 14.0184C176.904 13.0626 177.031 12.1972 177.206 11.4222C177.377 10.6259 177.611 9.93958 177.908 9.36315C178.226 8.7831 178.627 8.30935 179.113 7.9419C179.598 7.57446 180.191 7.32034 180.89 7.17957C181.551 7.06733 182.13 7.25376 182.629 7.73884C183.146 8.199 183.486 9.10554 183.65 10.4585C183.778 11.4669 183.719 12.4085 183.473 13.2832C183.245 14.1329 182.917 14.9119 182.489 15.6202C182.058 16.3072 181.557 16.9074 180.987 17.4207C180.413 17.9128 179.853 18.2929 179.307 18.5611C179.285 19.5949 179.276 20.6376 179.279 21.689C179.279 22.7192 179.275 23.7281 179.268 24.7157C179.278 25.6784 179.27 26.6002 179.245 27.4813C179.24 28.3587 179.22 29.1403 179.183 29.8261C179.142 30.4905 179.1 31.21 179.057 31.9845C179.016 32.649 178.96 33.4147 178.888 34.2817C178.816 35.1487 178.741 36.0601 178.662 37.0159C178.61 37.2222 178.53 37.4 178.424 37.5496C178.322 37.7204 178.214 37.8593 178.101 37.9662C177.97 38.0981 177.835 38.2086 177.697 38.2979C177.3 38.5407 176.943 38.6342 176.626 38.5784C176.31 38.5226 175.995 38.2802 175.681 37.8514C175.363 37.4013 175.047 36.8303 174.732 36.1386C174.439 35.4433 174.124 34.6859 173.787 33.8664C173.44 32.9829 173.122 32.0177 172.835 30.9707C172.565 29.8987 172.304 28.8143 172.052 27.7174C171.817 26.5956 171.595 25.4827 171.386 24.3785C171.176 23.2744 170.956 22.2378 170.726 21.2688C170.402 20.0087 170.102 18.8871 169.825 17.904C169.545 16.8996 169.281 16.0567 169.034 15.3755C169.021 15.816 169.007 16.3116 168.991 16.8623C168.975 17.4129 168.95 17.9761 168.916 18.5517ZM179.424 15.3849C179.387 15.8078 179.367 16.2057 179.364 16.5787C179.825 16.1936 180.241 15.7393 180.612 15.2159C180.98 14.6712 181.28 14.1161 181.513 13.5505C181.745 12.985 181.903 12.4321 181.987 11.8918C182.092 11.348 182.119 10.8612 182.068 10.4316C182.038 10.1297 181.966 9.9008 181.852 9.74486C181.756 9.56399 181.612 9.48986 181.42 9.52244C181.313 9.54054 181.154 9.63341 180.941 9.80105C180.746 9.94377 180.543 10.2304 180.331 10.6609C180.116 11.0701 179.919 11.6516 179.74 12.4052C179.583 13.1553 179.477 14.1485 179.424 15.3849Z" fill="black"/>
<path d="M192.955 24.7566C192.88 25.6023 192.721 26.4074 192.478 27.1719C192.236 27.9365 191.902 28.6178 191.478 29.216C191.075 29.8105 190.577 30.3006 189.985 30.6861C189.418 31.0893 188.762 31.3543 188.016 31.481C187.143 31.6295 186.418 31.5554 185.841 31.2588C185.29 30.98 184.839 30.5853 184.489 30.0749C184.161 29.5608 183.919 28.9773 183.764 28.3241C183.588 27.6746 183.451 27.0622 183.354 26.4871C183.285 26.0823 183.262 25.6259 183.285 25.1179C183.287 24.6134 183.33 24.0911 183.414 23.5508C183.497 23.0106 183.623 22.4632 183.792 21.9084C183.982 21.3501 184.222 20.8272 184.512 20.3396C184.578 19.9557 184.715 19.6036 184.924 19.2832C185.154 18.9592 185.425 18.683 185.736 18.4547C186.066 18.2014 186.426 17.9977 186.816 17.8437C187.203 17.6684 187.588 17.5482 187.971 17.483C188.035 17.4722 188.09 17.4738 188.137 17.4878C188.204 17.4983 188.272 17.5087 188.339 17.5192C188.62 17.4934 188.979 17.542 189.416 17.6649C189.875 17.7842 190.328 18.003 190.777 18.3213C191.247 18.636 191.671 19.068 192.049 19.6174C192.424 20.1455 192.682 20.825 192.823 21.6558C192.852 21.8262 192.878 22.041 192.9 22.3003C192.918 22.5383 192.931 22.7442 192.939 22.9183C193.396 22.6433 193.868 22.3221 194.353 21.9546C194.839 21.5872 195.301 21.2127 195.74 20.8312C196.197 20.4248 196.612 20.0256 196.983 19.6336C197.355 19.2417 197.647 18.8962 197.859 18.5971C198.04 18.3692 198.203 18.2319 198.348 18.1852C198.494 18.1386 198.608 18.1631 198.69 18.2587C198.772 18.3544 198.808 18.5017 198.798 18.7007C198.788 18.8996 198.707 19.1326 198.555 19.3995C198.47 19.5454 198.236 19.8481 197.854 20.3076C197.493 20.7634 197.053 21.2657 196.532 21.8145C196.012 22.3632 195.436 22.9103 194.806 23.4558C194.175 24.0014 193.558 24.4349 192.955 24.7566ZM186.73 20.8174C186.698 21.0199 186.701 21.2278 186.737 21.4408C186.795 21.7816 186.878 22.1401 186.986 22.5164C187.09 22.8713 187.252 23.1833 187.474 23.4526C187.695 23.7219 188.004 23.9323 188.403 24.0837C188.819 24.2103 189.357 24.2175 190.017 24.1052C190.124 24.0871 190.23 24.069 190.337 24.0509C190.44 24.0115 190.543 23.9721 190.646 23.9327C190.662 23.6449 190.674 23.3909 190.68 23.1706C190.705 22.9254 190.702 22.7176 190.673 22.5472C190.647 22.1352 190.576 21.7198 190.461 21.301C190.346 20.8822 190.196 20.5132 190.01 20.1941C189.842 19.8501 189.644 19.5878 189.416 19.4074C189.206 19.202 188.973 19.121 188.717 19.1645C188.313 19.2333 187.938 19.4174 187.595 19.7169C187.269 19.9915 186.981 20.3583 186.73 20.8174ZM185.641 26.7888C185.706 27.1723 185.792 27.5521 185.9 27.9283C186.004 28.2832 186.145 28.5989 186.324 28.8754C186.499 29.1306 186.709 29.336 186.955 29.4915C187.197 29.6257 187.488 29.6639 187.829 29.606C188.212 29.5408 188.549 29.3959 188.84 29.1711C189.127 28.9251 189.375 28.6419 189.583 28.3215C189.788 27.9798 189.956 27.6116 190.086 27.2169C190.234 26.7972 190.348 26.3724 190.428 25.9423C190.283 25.9889 190.137 26.0356 189.992 26.0822C189.864 26.1039 189.715 26.1293 189.544 26.1582C188.735 26.2958 187.992 26.181 187.316 25.8137C186.657 25.4215 186.105 24.8797 185.659 24.1884C185.607 24.6575 185.575 25.1123 185.562 25.5529C185.549 25.9934 185.575 26.4054 185.641 26.7888Z" fill="black"/>
<path d="M213.11 20.871C212.942 21.6886 212.728 22.4921 212.468 23.2815C212.207 24.071 211.892 24.7931 211.521 25.448C211.15 26.1028 210.727 26.6459 210.253 27.0772C209.778 27.5086 209.232 27.7767 208.614 27.8817C207.613 28.0519 206.8 27.8502 206.177 27.2767C205.55 26.6819 205.057 25.9109 204.699 24.9635C204.477 25.4616 204.233 25.9632 203.968 26.4685C203.703 26.9738 203.408 27.4295 203.083 27.8355C202.757 28.2415 202.41 28.5854 202.042 28.8672C201.673 29.149 201.286 29.3243 200.882 29.3931C200.328 29.4872 199.839 29.4497 199.416 29.2806C198.993 29.1114 198.619 28.8462 198.294 28.4849C197.988 28.0986 197.736 27.6483 197.539 27.1338C197.338 26.5981 197.185 26.0213 197.08 25.4035L197.015 25.0201C196.881 24.2319 196.808 23.4115 196.794 22.559C196.781 21.7064 196.789 20.916 196.819 20.1877C196.87 19.4557 196.937 18.8196 197.02 18.2794C197.1 17.7179 197.168 17.3447 197.225 17.1598C197.337 16.9214 197.623 16.6647 198.08 16.3897C198.555 16.0898 199.041 15.9195 199.538 15.8788C199.776 15.8603 199.91 15.9363 199.939 16.1067C199.989 16.2735 200.004 16.4901 199.983 16.7566C199.96 17.1333 199.903 17.7018 199.813 18.4623C199.723 19.2228 199.633 20.049 199.544 20.941C199.476 21.8293 199.427 22.7033 199.398 23.5631C199.369 24.4228 199.401 25.1297 199.495 25.6835C199.611 26.3652 199.801 26.8371 200.064 27.0991C200.328 27.3611 200.684 27.4541 201.131 27.3781C201.664 27.2876 202.199 26.8898 202.736 26.1847C203.295 25.476 203.763 24.3555 204.138 22.8232C204.095 22.6991 204.062 22.573 204.041 22.4452C204.019 22.3174 203.995 22.1789 203.97 22.0298C203.807 21.0712 203.683 20.1498 203.599 19.2655C203.536 18.3776 203.554 17.5854 203.655 16.8888C203.777 16.1886 203.998 15.6142 204.316 15.1655C204.655 14.7133 205.145 14.4329 205.784 14.3243C206.039 14.2808 206.265 14.3192 206.461 14.4393C206.657 14.5595 206.778 14.758 206.825 15.035C206.941 15.7167 206.861 16.7276 206.584 18.0677C206.326 19.3829 205.993 20.8422 205.586 22.4456C205.537 22.5417 205.508 22.6341 205.502 22.723C205.634 23.1169 205.781 23.5302 205.942 23.9631C206.125 24.3924 206.334 24.7842 206.57 25.1387C206.802 25.4719 207.057 25.7464 207.334 25.9622C207.608 26.1567 207.905 26.2268 208.225 26.1725C208.693 26.0929 209.082 25.7968 209.389 25.2843C209.718 24.7681 209.977 24.1651 210.166 23.4754C210.377 22.782 210.54 22.0639 210.655 21.3211C210.766 20.557 210.839 19.8871 210.873 19.3115C210.769 19.0881 210.678 18.8734 210.599 18.6676C210.516 18.4406 210.45 18.1779 210.399 17.8797C210.287 17.2193 210.287 16.6385 210.399 16.1372C210.511 15.636 210.691 15.2109 210.938 14.862C211.203 14.4881 211.494 14.1977 211.809 13.9906C212.146 13.78 212.464 13.6493 212.762 13.5986C213.294 13.5081 213.601 13.6972 213.68 14.1658C213.738 14.5067 213.754 15.1176 213.729 15.9987C213.699 16.8585 213.616 17.8481 213.477 18.9675C213.889 19.0728 214.394 19.0747 214.99 18.9733C215.544 18.8792 216.045 18.7284 216.492 18.5209C216.935 18.2922 217.33 18.0387 217.677 17.7605C218.025 17.4823 218.336 17.1882 218.612 16.8783C218.889 16.5683 219.156 16.2709 219.414 15.9859C219.62 15.7756 219.81 15.7324 219.984 15.8561C220.158 15.9799 220.177 16.2179 220.04 16.57C219.916 16.8759 219.672 17.2461 219.308 17.6807C218.965 18.1116 218.524 18.5482 217.985 18.9904C217.464 19.4077 216.862 19.795 216.177 20.1525C215.51 20.485 214.783 20.7182 213.995 20.8522C213.867 20.8739 213.727 20.8868 213.574 20.8908C213.421 20.8948 213.267 20.8882 213.11 20.871Z" fill="black"/>
<path d="M77.9069 55.6519C76.8417 55.8329 75.829 55.742 74.8687 55.3792C73.9297 55.0128 73.0753 54.4347 72.3055 53.645C71.5569 52.8516 70.9215 51.8856 70.3992 50.747C69.8946 49.5834 69.5478 48.3163 69.3587 46.9457C69.1841 45.6603 69.1085 44.2485 69.132 42.7103C69.1768 41.1684 69.3388 39.6066 69.6179 38.0249C69.8934 36.4219 70.2863 34.8647 70.7966 33.3533C71.3245 31.817 71.988 30.433 72.7869 29.2013C73.5858 27.9697 74.5274 26.9329 75.6117 26.0911C76.6924 25.228 77.9464 24.6751 79.3737 24.4326C80.2471 24.2841 81.0128 24.3403 81.6709 24.6011C82.3466 24.8369 82.9144 25.2116 83.3743 25.7253C83.8555 26.2353 84.2322 26.8397 84.5044 27.5387C84.7766 28.2376 84.9654 28.9617 85.0708 29.7109C85.1477 30.4212 85.157 31.1209 85.0988 31.8103C85.0619 32.496 84.9396 33.1305 84.7319 33.7138C84.5419 34.2721 84.261 34.7472 83.8892 35.1392C83.5352 35.5062 83.0919 35.735 82.5593 35.8255C82.3 35.8476 82.0406 35.8041 81.7809 35.6948C81.5461 35.6031 81.2899 35.4494 81.0121 35.2336C80.7556 35.0142 80.4899 34.6758 80.2149 34.2184C80.7503 33.8863 81.1288 33.4056 81.3506 32.7761C81.5901 32.1217 81.7407 31.4605 81.8025 30.7924C81.8712 30.0355 81.8614 29.2043 81.7733 28.2987C81.6674 27.4181 81.3777 26.8098 80.9042 26.4738C80.4307 26.1379 79.9383 26.0133 79.427 26.1002C78.4258 26.2704 77.46 26.9715 76.5296 28.2036C75.5993 29.4357 74.8069 31.0279 74.1524 32.9803C73.5156 34.9077 73.0679 37.1098 72.8094 39.5866C72.5722 42.0598 72.6248 44.6263 72.9672 47.2859C73.1273 48.4861 73.3739 49.4853 73.7068 50.2835C74.061 51.0781 74.4645 51.7109 74.9171 52.1819C75.3911 52.6493 75.8823 52.9604 76.3908 53.115C76.8993 53.2697 77.3878 53.3072 77.8565 53.2276C78.6021 53.1009 79.2779 52.8216 79.884 52.3899C80.4901 51.9581 81.0196 51.4626 81.4725 50.9034C81.9467 50.3407 82.3321 49.771 82.6286 49.1946C82.9501 48.6359 83.1848 48.1467 83.3327 47.727C83.4347 47.4247 83.5655 47.2272 83.7251 47.1343C83.8846 47.0414 84.0374 47.0374 84.1833 47.1222C84.3256 47.1857 84.4361 47.3203 84.515 47.5261C84.5901 47.7106 84.5874 47.9521 84.5066 48.2508C84.2676 49.0366 83.9433 49.8369 83.5338 50.6517C83.1457 51.4629 82.6703 52.2122 82.1076 52.8996C81.5699 53.6047 80.9484 54.2035 80.243 54.696C79.5377 55.1885 78.759 55.5071 77.9069 55.6519Z" stroke="black" mask="url(#path-1-outside-1_1217_746)"/>
<path d="M103.46 38.6515C103.234 39.1282 102.941 39.7259 102.581 40.4447C102.218 41.1421 101.834 41.8538 101.432 42.5798C101.047 43.2808 100.655 43.9393 100.255 44.5551C99.8734 45.146 99.5409 45.5751 99.2575 45.8425C99.0662 46.0065 98.8393 46.1546 98.5769 46.2869C98.3144 46.4192 98.0359 46.5213 97.7413 46.5933C97.468 46.6617 97.1981 46.6856 96.9316 46.6652C96.6687 46.666 96.4305 46.6188 96.2171 46.5236C96 46.407 95.8041 46.2212 95.6292 45.966C95.4828 45.7497 95.3238 45.4589 95.1521 45.0936C95.0018 44.7246 94.8884 44.2508 94.8119 43.672C94.4455 44.611 93.9932 45.3673 93.455 45.9409C92.9133 46.4933 92.3836 46.923 91.8659 47.2302C91.2667 47.5731 90.6511 47.8202 90.0193 47.9714C89.721 48.0221 89.3834 47.9699 89.0064 47.8148C88.6329 47.681 88.2928 47.421 87.9861 47.0348C87.6758 46.6272 87.4307 46.0881 87.2509 45.4172C87.0675 44.7251 87.0116 43.8798 87.083 42.8814C87.1604 41.5312 87.4281 40.2693 87.8861 39.0955C88.3655 37.9182 88.9253 36.8915 89.5655 36.0156C90.202 35.1184 90.8605 34.4147 91.5409 33.9045C92.2214 33.3943 92.8102 33.1189 93.3074 33.0783C93.9006 33.087 94.3983 33.1778 94.8002 33.3506C95.1347 33.5129 95.3807 33.7999 95.5383 34.2114C95.7136 34.5981 95.6355 35.1703 95.304 35.928C95.5914 35.8134 95.8291 35.7292 96.0172 35.6753C96.2267 35.6178 96.3846 35.58 96.4911 35.5619C96.6189 35.5401 96.706 35.5363 96.7522 35.5504C96.7807 35.5894 96.8077 35.6834 96.833 35.8325C96.8547 35.9603 96.8644 36.2107 96.8621 36.5838C96.8597 36.9568 96.8471 37.463 96.8243 38.1025C96.8015 38.742 96.7668 39.5698 96.7203 40.586C96.7103 40.7849 96.6985 40.9732 96.6848 41.1509C96.6889 41.3036 96.6841 41.4688 96.6704 41.6465C96.6745 41.7992 96.6733 41.9857 96.6669 42.206C96.6605 42.4263 96.6525 42.7016 96.6429 43.032C96.6542 43.2274 96.6797 43.4422 96.7195 43.6765C96.777 43.8859 96.854 44.0811 96.9505 44.2619C97.047 44.4428 97.17 44.5863 97.3196 44.6924C97.4868 44.7735 97.6982 44.7924 97.9539 44.7489C98.1669 44.7127 98.4221 44.5379 98.7195 44.2243C99.0133 43.8894 99.3175 43.487 99.6322 43.0171C99.9432 42.5259 100.259 42.0009 100.581 41.4422C100.92 40.8585 101.231 40.3016 101.513 39.7714C101.796 39.2412 102.045 38.7714 102.26 38.3622C102.497 37.9494 102.665 37.6469 102.764 37.4548C102.901 37.2341 103.054 37.0986 103.221 37.0483C103.384 36.9768 103.519 36.9977 103.626 37.111C103.733 37.2243 103.776 37.4142 103.755 37.6807C103.756 37.9436 103.658 38.2672 103.46 38.6515ZM94.3365 41.6486C94.3706 41.2045 94.4134 40.6821 94.4647 40.0816C94.5161 39.4811 94.5498 38.9055 94.5658 38.3548C94.5818 37.8042 94.5821 37.3548 94.5668 37.0067C94.5692 36.6337 94.5296 36.4651 94.448 36.5009C94.3451 36.5403 94.2333 36.5922 94.1128 36.6565C94.0135 36.7172 93.8805 36.7727 93.7136 36.8229C93.5468 36.8732 93.3819 36.9341 93.2187 37.0057C93.3312 36.6359 93.38 36.3427 93.3651 36.126C93.3678 35.8844 93.3477 35.7016 93.3047 35.5774C93.2581 35.4319 93.1955 35.3219 93.1171 35.2476C92.8502 35.0957 92.462 35.3261 91.9524 35.9387C91.4605 36.5264 90.9451 37.5565 90.4063 39.0289C90.1809 39.6371 90.0267 40.277 89.9436 40.9486C89.8568 41.599 89.8179 42.2084 89.8268 42.7767C89.8571 43.3414 89.9297 43.8332 90.0447 44.252C90.1561 44.6495 90.2866 44.9013 90.4361 45.0074C90.7103 45.2019 90.9964 45.2738 91.2947 45.2231C91.5893 45.1512 91.8731 45.0153 92.146 44.8155C92.4365 44.5907 92.7092 44.3252 92.964 44.0189C93.2401 43.709 93.4718 43.3956 93.659 43.0788C93.8676 42.7585 94.0265 42.4684 94.1358 42.2088C94.2664 41.9455 94.3333 41.7588 94.3365 41.6486Z" stroke="black" mask="url(#path-1-outside-1_1217_746)"/>
<path d="M101.997 44.9166C102.265 40.8163 102.473 37.5261 102.621 35.0461C102.791 32.5624 102.918 30.6668 103.003 29.3593C103.09 27.8102 103.149 26.7372 103.179 26.1403C103.174 25.7247 103.16 25.3215 103.138 24.9308C103.122 24.5827 103.084 24.2276 103.022 23.8655C102.961 23.5033 102.873 23.1786 102.758 22.8912C102.91 22.7557 103.077 22.6397 103.258 22.5432C103.46 22.4431 103.653 22.3555 103.838 22.2803C104.061 22.1766 104.287 22.0835 104.514 22.001C104.741 21.9186 104.95 21.8611 105.142 21.8285C105.312 21.7996 105.476 21.7937 105.632 21.811C105.785 21.8069 105.892 21.8546 105.952 21.9538C106.098 22.0386 106.188 22.2426 106.221 22.5658C106.275 22.8853 106.31 23.2191 106.325 23.5672C106.309 23.9864 106.287 24.4394 106.26 24.9262C106.16 25.8856 106.033 27.2661 105.879 29.0677C105.745 30.6027 105.564 32.6939 105.334 35.3411C105.126 37.9848 104.86 41.3177 104.535 45.3401C104.447 45.4647 104.331 45.561 104.19 45.6289C104.048 45.6969 103.913 45.7417 103.785 45.7634C103.636 45.7888 103.474 45.8053 103.3 45.8129C103.144 45.7957 102.984 45.7571 102.82 45.6972C102.678 45.6337 102.53 45.5383 102.377 45.4109C102.228 45.3048 102.101 45.14 101.997 44.9166Z" stroke="black" mask="url(#path-1-outside-1_1217_746)"/>
<path d="M109.319 43.6723C109.586 39.572 109.794 36.2818 109.942 33.8018C110.112 31.3182 110.239 29.4226 110.324 28.115C110.411 26.5659 110.47 25.4929 110.5 24.896C110.495 24.4804 110.482 24.0772 110.459 23.6866C110.444 23.3385 110.405 22.9834 110.344 22.6212C110.282 22.2591 110.194 21.9343 110.079 21.6469C110.232 21.5114 110.398 21.3955 110.579 21.299C110.781 21.1989 110.975 21.1112 111.159 21.036C111.383 20.9323 111.608 20.8392 111.835 20.7568C112.062 20.6743 112.272 20.6168 112.463 20.5843C112.634 20.5553 112.797 20.5494 112.953 20.5667C113.106 20.5627 113.213 20.6103 113.274 20.7096C113.42 20.7943 113.509 20.9983 113.542 21.3215C113.596 21.641 113.631 21.9748 113.646 22.3229C113.63 22.7421 113.608 23.1951 113.581 23.6819C113.482 24.6414 113.355 26.0219 113.2 27.8234C113.067 29.3585 112.885 31.4496 112.656 34.0969C112.447 36.7405 112.181 40.0735 111.856 44.0958C111.768 44.2204 111.653 44.3167 111.511 44.3846C111.369 44.4526 111.234 44.4974 111.106 44.5191C110.957 44.5445 110.796 44.561 110.622 44.5686C110.465 44.5514 110.305 44.5128 110.142 44.453C109.999 44.3895 109.852 44.294 109.698 44.1666C109.549 44.0605 109.422 43.8958 109.319 43.6723Z" stroke="black" mask="url(#path-1-outside-1_1217_746)"/>
<path d="M126.909 41.5047C126.695 40.1164 126.59 38.337 126.593 36.1665C126.584 34.3051 126.67 31.9123 126.853 28.9881C127.035 26.0639 127.408 22.5157 127.97 18.3434C128.04 18.1123 128.169 17.904 128.357 17.7187C128.566 17.5298 128.778 17.3621 128.995 17.2158C129.232 17.0658 129.505 16.9317 129.814 16.8135C130.101 16.6989 130.38 16.5968 130.65 16.5071C130.877 16.4247 131.118 16.3618 131.374 16.3183C131.629 16.2749 131.846 16.26 132.024 16.2736C131.597 18.275 131.247 20.0878 130.975 21.7121C130.7 23.3151 130.486 24.6994 130.333 25.8651C130.149 27.2333 130.015 28.4398 129.929 29.4845C129.748 30.6112 129.62 31.7288 129.545 32.8374C129.471 33.9459 129.43 34.994 129.422 35.9816C129.432 36.9443 129.458 37.8056 129.5 38.5657C129.563 39.3222 129.63 39.9134 129.703 40.3395C129.941 41.614 130.324 42.579 130.852 43.2345C131.384 43.9113 132.107 44.1719 133.023 44.0162C133.79 43.8859 134.442 43.4025 134.98 42.5659C135.538 41.7258 136.006 40.7367 136.382 39.5988C136.776 38.4359 137.073 37.2129 137.271 35.9299C137.469 34.6468 137.594 33.5079 137.644 32.5131C137.657 32.3354 137.66 32.0939 137.652 31.7884C137.705 30.4205 137.785 28.8945 137.893 27.2104C137.978 25.7714 138.095 24.0748 138.245 22.1205C138.416 20.1626 138.622 18.0234 138.864 15.7029C139.005 15.5035 139.173 15.3325 139.368 15.1898C139.563 15.047 139.74 14.9293 139.9 14.8364C140.098 14.715 140.302 14.6255 140.512 14.568C140.718 14.4892 140.938 14.4299 141.172 14.39C141.364 14.3575 141.591 14.3408 141.854 14.3399C142.113 14.3178 142.378 14.3276 142.648 14.3693C142.417 15.5921 142.207 16.8663 142.015 18.1919C141.821 19.4963 141.654 20.7082 141.516 21.8276C141.342 23.1283 141.188 24.4148 141.054 25.687C140.824 27.304 140.666 28.7557 140.577 30.0419C140.485 31.3069 140.432 32.4775 140.418 33.5539C140.421 34.6054 140.446 35.5876 140.491 36.5004C140.555 37.3883 140.616 38.2655 140.676 39.1321C140.728 39.8247 140.826 40.4656 140.97 41.0548C141.103 41.5801 141.268 42.1 141.465 42.6145C141.662 43.1289 141.93 43.5437 142.268 43.8588C142.187 44.026 142.056 44.1579 141.875 44.2544C141.694 44.3509 141.501 44.4385 141.295 44.5173C141.068 44.5997 140.816 44.6645 140.539 44.7116C139.985 44.8057 139.51 44.5248 139.114 43.8689C138.742 43.2306 138.417 42.1571 138.139 40.6482C138.026 41.018 137.832 41.4893 137.557 42.0621C137.285 42.6563 136.914 43.2454 136.444 43.8294C135.998 44.4312 135.444 44.9747 134.781 45.46C134.118 45.9452 133.34 46.2639 132.445 46.4159C131.55 46.568 130.778 46.5349 130.127 46.3168C129.501 46.1163 128.962 45.7805 128.509 45.3095C128.081 44.8562 127.733 44.2907 127.464 43.613C127.221 42.9531 127.036 42.2503 126.909 41.5047Z" stroke="black" mask="url(#path-1-outside-1_1217_746)"/>
<path d="M149.814 36.1982C149.956 36.2617 150.123 36.2772 150.315 36.2446C150.528 36.2084 150.723 36.1314 150.9 36.0136C151.099 35.8922 151.271 35.7424 151.416 35.5643C151.582 35.3826 151.688 35.1674 151.733 34.9186C151.779 34.6698 151.723 34.3396 151.565 33.928C151.404 33.4951 151.186 33.05 150.911 32.5926C150.653 32.1103 150.375 31.6316 150.075 31.1566C149.775 30.6815 149.514 30.2436 149.293 29.8429C149.111 29.5451 148.953 29.265 148.821 29.0025C148.696 28.7827 148.573 28.5735 148.451 28.3749C148.348 28.1515 148.267 28.0007 148.21 27.9228C148.133 28.1113 147.988 28.4208 147.776 28.8513C147.586 29.2782 147.367 29.7318 147.12 30.2122C146.89 30.6676 146.668 31.1 146.453 31.5092C146.234 31.8971 146.082 32.164 145.997 32.3099C145.859 32.5306 145.709 32.6767 145.545 32.7483C145.4 32.7949 145.267 32.7847 145.146 32.7176C145.021 32.6292 144.934 32.5016 144.883 32.3348C144.851 32.1431 144.898 31.9049 145.025 31.6203C145.124 31.4282 145.27 31.1293 145.464 30.7237C145.655 30.2968 145.845 29.8699 146.036 29.443C146.223 28.9948 146.397 28.6035 146.559 28.2691C146.718 27.9133 146.803 27.7017 146.813 27.6342C146.827 27.4565 146.725 27.2437 146.507 26.9957C146.311 26.7441 146.236 26.4282 146.281 26.048C146.315 25.7352 146.449 25.3618 146.682 24.9277C146.911 24.4722 147.201 24.0504 147.552 23.662C147.902 23.2737 148.278 22.9688 148.679 22.7472C149.076 22.5044 149.459 22.4392 149.829 22.5517C150.135 22.6751 150.391 22.8288 150.598 23.0129C150.801 23.1756 150.899 23.3671 150.893 23.5874C150.868 23.7012 150.828 23.8505 150.771 24.0354C150.715 24.2203 150.624 24.455 150.497 24.7396C150.366 25.0029 150.174 25.3535 149.919 25.7912C150.066 26.2703 150.228 26.7032 150.403 27.0898C150.6 27.4729 150.776 27.8044 150.934 28.0846C151.123 28.425 151.318 28.7317 151.517 29.0046C151.774 29.3554 152.044 29.7151 152.325 30.0837C152.607 30.4522 152.868 30.8244 153.107 31.2002C153.343 31.5547 153.543 31.8933 153.707 32.216C153.871 32.5387 153.952 32.8209 153.949 33.0625C153.947 33.4355 153.83 33.9048 153.597 34.4703C153.386 35.0323 153.087 35.5981 152.702 36.1677C152.334 36.7124 151.881 37.2058 151.342 37.648C150.825 38.0866 150.247 38.3602 149.608 38.4688C149.161 38.5449 148.7 38.4806 148.227 38.2761C147.775 38.068 147.37 37.8082 147.01 37.4967C146.668 37.1603 146.391 36.8237 146.181 36.4869C145.991 36.1465 145.934 35.8714 146.008 35.6615C146.092 35.3842 146.175 35.1619 146.256 34.9947C146.337 34.8275 146.468 34.6299 146.648 34.402C146.723 34.3236 146.817 34.2309 146.93 34.124C147.026 34.042 147.164 33.9527 147.345 33.8562C147.525 33.7597 147.736 33.6472 147.978 33.5185C148.303 34.1427 148.583 34.632 148.819 34.9865C149.051 35.3197 149.238 35.5837 149.381 35.7786C149.549 35.9913 149.693 36.1311 149.814 36.1982Z" stroke="black" mask="url(#path-1-outside-1_1217_746)"/>
<path d="M168.916 18.5517C168.875 18.9532 168.83 19.5306 168.783 20.2839C168.753 21.0122 168.721 21.8507 168.684 22.7993C168.67 23.7442 168.643 24.7461 168.603 25.8048C168.582 26.8386 168.569 27.86 168.565 28.8689C168.583 29.8741 168.602 30.8243 168.622 31.7195C168.639 32.5933 168.688 33.3303 168.768 33.9304C168.859 34.5944 168.969 35.2441 169.099 35.8796C169.215 36.4298 169.344 36.9995 169.488 37.5888C169.657 38.1957 169.856 38.7208 170.085 39.1641C169.752 39.3961 169.452 39.5676 169.186 39.6785C168.924 39.8108 168.711 39.9127 168.548 39.9843C168.342 40.0631 168.164 40.1152 168.015 40.1405C167.845 40.1695 167.639 40.1826 167.397 40.1798C167.159 40.1983 166.928 40.128 166.704 39.9689C166.48 39.8097 166.269 39.5387 166.072 39.1556C165.876 38.7726 165.734 38.194 165.646 37.4199C165.58 36.905 165.557 36.2514 165.576 35.4592C165.577 34.6919 165.597 33.8446 165.637 32.9173C165.673 31.9687 165.727 30.9952 165.798 29.9967C165.887 28.9733 165.971 27.9837 166.05 27.0279C166.125 26.0508 166.188 25.1305 166.238 24.2671C166.31 23.4001 166.37 22.6557 166.417 22.0339C166.479 21.2344 166.54 20.3035 166.6 19.2411C166.708 17.4255 166.87 14.7021 167.086 11.0709C167.217 10.939 167.36 10.816 167.516 10.7018C167.668 10.5664 167.803 10.4558 167.92 10.3702C168.055 10.2596 168.193 10.1704 168.335 10.1024C168.973 9.73095 169.447 9.61753 169.756 9.76219C170.087 9.90323 170.323 10.2577 170.463 10.8256C170.55 11.2055 170.686 11.7521 170.873 12.4655C171.082 13.1753 171.294 13.9722 171.51 14.856C171.726 15.7399 171.937 16.6575 172.142 17.6089C172.344 18.5389 172.514 19.4087 172.651 20.2182C172.742 20.7508 172.859 21.3774 173.004 22.0981C173.148 22.8188 173.31 23.5802 173.491 24.3825C173.671 25.1847 173.865 26.0065 174.074 26.8477C174.279 27.6677 174.489 28.4539 174.705 29.2063C174.92 29.9587 175.125 30.6472 175.319 31.2718C175.534 31.8928 175.729 32.3966 175.905 32.7832C175.976 32.9464 176.046 33.0989 176.114 33.2408C176.203 33.3791 176.282 33.5191 176.35 33.661C176.391 33.128 176.426 32.4974 176.456 31.769C176.506 31.0371 176.55 30.2625 176.587 29.4454C176.641 28.6033 176.682 27.7524 176.712 26.8926C176.737 26.0115 176.751 25.1873 176.752 24.42C176.757 23.8054 176.744 23.0186 176.712 22.0596C176.681 21.1006 176.658 20.0633 176.644 18.9479C176.395 18.9025 176.157 18.8554 175.929 18.8063C175.723 18.7537 175.513 18.6798 175.3 18.5846C175.086 18.4893 174.901 18.3674 174.744 18.2187C174.719 17.9381 174.706 17.7321 174.705 17.6007C174.726 17.4656 174.831 17.4369 175.019 17.5144C175.158 17.5566 175.362 17.5986 175.632 17.6403C175.924 17.6785 176.254 17.6881 176.624 17.6691C176.629 17.0546 176.645 16.4382 176.671 15.82C176.719 15.1982 176.77 14.5977 176.825 14.0184C176.904 13.0626 177.031 12.1972 177.206 11.4222C177.377 10.6259 177.611 9.93958 177.908 9.36315C178.226 8.7831 178.627 8.30935 179.113 7.9419C179.598 7.57446 180.191 7.32034 180.89 7.17957C181.551 7.06733 182.13 7.25376 182.629 7.73884C183.146 8.199 183.486 9.10554 183.65 10.4585C183.778 11.4669 183.719 12.4085 183.473 13.2832C183.245 14.1329 182.917 14.9119 182.489 15.6202C182.058 16.3072 181.557 16.9074 180.987 17.4207C180.413 17.9128 179.853 18.2929 179.307 18.5611C179.285 19.5949 179.276 20.6376 179.279 21.689C179.279 22.7192 179.275 23.7281 179.268 24.7157C179.278 25.6784 179.27 26.6002 179.245 27.4813C179.24 28.3587 179.22 29.1403 179.183 29.8261C179.142 30.4905 179.1 31.21 179.057 31.9845C179.016 32.649 178.96 33.4147 178.888 34.2817C178.816 35.1487 178.741 36.0601 178.662 37.0159C178.61 37.2222 178.53 37.4 178.424 37.5496C178.322 37.7204 178.214 37.8593 178.101 37.9662C177.97 38.0981 177.835 38.2086 177.697 38.2979C177.3 38.5407 176.943 38.6342 176.626 38.5784C176.31 38.5226 175.995 38.2802 175.681 37.8514C175.363 37.4013 175.047 36.8303 174.732 36.1386C174.439 35.4433 174.124 34.6859 173.787 33.8664C173.44 32.9829 173.122 32.0177 172.835 30.9707C172.565 29.8987 172.304 28.8143 172.052 27.7174C171.817 26.5956 171.595 25.4827 171.386 24.3785C171.176 23.2744 170.956 22.2378 170.726 21.2688C170.402 20.0087 170.102 18.8871 169.825 17.904C169.545 16.8996 169.281 16.0567 169.034 15.3755C169.021 15.816 169.007 16.3116 168.991 16.8623C168.975 17.4129 168.95 17.9761 168.916 18.5517ZM179.424 15.3849C179.387 15.8078 179.367 16.2057 179.364 16.5787C179.825 16.1936 180.241 15.7393 180.612 15.2159C180.98 14.6712 181.28 14.1161 181.513 13.5505C181.745 12.985 181.903 12.4321 181.987 11.8918C182.092 11.348 182.119 10.8612 182.068 10.4316C182.038 10.1297 181.966 9.9008 181.852 9.74486C181.756 9.56399 181.612 9.48986 181.42 9.52244C181.313 9.54054 181.154 9.63341 180.941 9.80105C180.746 9.94377 180.543 10.2304 180.331 10.6609C180.116 11.0701 179.919 11.6516 179.74 12.4052C179.583 13.1553 179.477 14.1485 179.424 15.3849Z" stroke="black" mask="url(#path-1-outside-1_1217_746)"/>
<path d="M192.955 24.7566C192.88 25.6023 192.721 26.4074 192.478 27.1719C192.236 27.9365 191.902 28.6178 191.478 29.216C191.075 29.8105 190.577 30.3006 189.985 30.6861C189.418 31.0893 188.762 31.3543 188.016 31.481C187.143 31.6295 186.418 31.5554 185.841 31.2588C185.29 30.98 184.839 30.5853 184.489 30.0749C184.161 29.5608 183.919 28.9773 183.764 28.3241C183.588 27.6746 183.451 27.0622 183.354 26.4871C183.285 26.0823 183.262 25.6259 183.285 25.1179C183.287 24.6134 183.33 24.0911 183.414 23.5508C183.497 23.0106 183.623 22.4632 183.792 21.9084C183.982 21.3501 184.222 20.8272 184.512 20.3396C184.578 19.9557 184.715 19.6036 184.924 19.2832C185.154 18.9592 185.425 18.683 185.736 18.4547C186.066 18.2014 186.426 17.9977 186.816 17.8437C187.203 17.6684 187.588 17.5482 187.971 17.483C188.035 17.4722 188.09 17.4738 188.137 17.4878C188.204 17.4983 188.272 17.5087 188.339 17.5192C188.62 17.4934 188.979 17.542 189.416 17.6649C189.875 17.7842 190.328 18.003 190.777 18.3213C191.247 18.636 191.671 19.068 192.049 19.6174C192.424 20.1455 192.682 20.825 192.823 21.6558C192.852 21.8262 192.878 22.041 192.9 22.3003C192.918 22.5383 192.931 22.7442 192.939 22.9183C193.396 22.6433 193.868 22.3221 194.353 21.9546C194.839 21.5872 195.301 21.2127 195.74 20.8312C196.197 20.4248 196.612 20.0256 196.983 19.6336C197.355 19.2417 197.647 18.8962 197.859 18.5971C198.04 18.3692 198.203 18.2319 198.348 18.1852C198.494 18.1386 198.608 18.1631 198.69 18.2587C198.772 18.3544 198.808 18.5017 198.798 18.7007C198.788 18.8996 198.707 19.1326 198.555 19.3995C198.47 19.5454 198.236 19.8481 197.854 20.3076C197.493 20.7634 197.053 21.2657 196.532 21.8145C196.012 22.3632 195.436 22.9103 194.806 23.4558C194.175 24.0014 193.558 24.4349 192.955 24.7566ZM186.73 20.8174C186.698 21.0199 186.701 21.2278 186.737 21.4408C186.795 21.7816 186.878 22.1401 186.986 22.5164C187.09 22.8713 187.252 23.1833 187.474 23.4526C187.695 23.7219 188.004 23.9323 188.403 24.0837C188.819 24.2103 189.357 24.2175 190.017 24.1052C190.124 24.0871 190.23 24.069 190.337 24.0509C190.44 24.0115 190.543 23.9721 190.646 23.9327C190.662 23.6449 190.674 23.3909 190.68 23.1706C190.705 22.9254 190.702 22.7176 190.673 22.5472C190.647 22.1352 190.576 21.7198 190.461 21.301C190.346 20.8822 190.196 20.5132 190.01 20.1941C189.842 19.8501 189.644 19.5878 189.416 19.4074C189.206 19.202 188.973 19.121 188.717 19.1645C188.313 19.2333 187.938 19.4174 187.595 19.7169C187.269 19.9915 186.981 20.3583 186.73 20.8174ZM185.641 26.7888C185.706 27.1723 185.792 27.5521 185.9 27.9283C186.004 28.2832 186.145 28.5989 186.324 28.8754C186.499 29.1306 186.709 29.336 186.955 29.4915C187.197 29.6257 187.488 29.6639 187.829 29.606C188.212 29.5408 188.549 29.3959 188.84 29.1711C189.127 28.9251 189.375 28.6419 189.583 28.3215C189.788 27.9798 189.956 27.6116 190.086 27.2169C190.234 26.7972 190.348 26.3724 190.428 25.9423C190.283 25.9889 190.137 26.0356 189.992 26.0822C189.864 26.1039 189.715 26.1293 189.544 26.1582C188.735 26.2958 187.992 26.181 187.316 25.8137C186.657 25.4215 186.105 24.8797 185.659 24.1884C185.607 24.6575 185.575 25.1123 185.562 25.5529C185.549 25.9934 185.575 26.4054 185.641 26.7888Z" stroke="black" mask="url(#path-1-outside-1_1217_746)"/>
<path d="M213.11 20.871C212.942 21.6886 212.728 22.4921 212.468 23.2815C212.207 24.071 211.892 24.7931 211.521 25.448C211.15 26.1028 210.727 26.6459 210.253 27.0772C209.778 27.5086 209.232 27.7767 208.614 27.8817C207.613 28.0519 206.8 27.8502 206.177 27.2767C205.55 26.6819 205.057 25.9109 204.699 24.9635C204.477 25.4616 204.233 25.9632 203.968 26.4685C203.703 26.9738 203.408 27.4295 203.083 27.8355C202.757 28.2415 202.41 28.5854 202.042 28.8672C201.673 29.149 201.286 29.3243 200.882 29.3931C200.328 29.4872 199.839 29.4497 199.416 29.2806C198.993 29.1114 198.619 28.8462 198.294 28.4849C197.988 28.0986 197.736 27.6483 197.539 27.1338C197.338 26.5981 197.185 26.0213 197.08 25.4035L197.015 25.0201C196.881 24.2319 196.808 23.4115 196.794 22.559C196.781 21.7064 196.789 20.916 196.819 20.1877C196.87 19.4557 196.937 18.8196 197.02 18.2794C197.1 17.7179 197.168 17.3447 197.225 17.1598C197.337 16.9214 197.623 16.6647 198.08 16.3897C198.555 16.0898 199.041 15.9195 199.538 15.8788C199.776 15.8603 199.91 15.9363 199.939 16.1067C199.989 16.2735 200.004 16.4901 199.983 16.7566C199.96 17.1333 199.903 17.7018 199.813 18.4623C199.723 19.2228 199.633 20.049 199.544 20.941C199.476 21.8293 199.427 22.7033 199.398 23.5631C199.369 24.4228 199.401 25.1297 199.495 25.6835C199.611 26.3652 199.801 26.8371 200.064 27.0991C200.328 27.3611 200.684 27.4541 201.131 27.3781C201.664 27.2876 202.199 26.8898 202.736 26.1847C203.295 25.476 203.763 24.3555 204.138 22.8232C204.095 22.6991 204.062 22.573 204.041 22.4452C204.019 22.3174 203.995 22.1789 203.97 22.0298C203.807 21.0712 203.683 20.1498 203.599 19.2655C203.536 18.3776 203.554 17.5854 203.655 16.8888C203.777 16.1886 203.998 15.6142 204.316 15.1655C204.655 14.7133 205.145 14.4329 205.784 14.3243C206.039 14.2808 206.265 14.3192 206.461 14.4393C206.657 14.5595 206.778 14.758 206.825 15.035C206.941 15.7167 206.861 16.7276 206.584 18.0677C206.326 19.3829 205.993 20.8422 205.586 22.4456C205.537 22.5417 205.508 22.6341 205.502 22.723C205.634 23.1169 205.781 23.5302 205.942 23.9631C206.125 24.3924 206.334 24.7842 206.57 25.1387C206.802 25.4719 207.057 25.7464 207.334 25.9622C207.608 26.1567 207.905 26.2268 208.225 26.1725C208.693 26.0929 209.082 25.7968 209.389 25.2843C209.718 24.7681 209.977 24.1651 210.166 23.4754C210.377 22.782 210.54 22.0639 210.655 21.3211C210.766 20.557 210.839 19.8871 210.873 19.3115C210.769 19.0881 210.678 18.8734 210.599 18.6676C210.516 18.4406 210.45 18.1779 210.399 17.8797C210.287 17.2193 210.287 16.6385 210.399 16.1372C210.511 15.636 210.691 15.2109 210.938 14.862C211.203 14.4881 211.494 14.1977 211.809 13.9906C212.146 13.78 212.464 13.6493 212.762 13.5986C213.294 13.5081 213.601 13.6972 213.68 14.1658C213.738 14.5067 213.754 15.1176 213.729 15.9987C213.699 16.8585 213.616 17.8481 213.477 18.9675C213.889 19.0728 214.394 19.0747 214.99 18.9733C215.544 18.8792 216.045 18.7284 216.492 18.5209C216.935 18.2922 217.33 18.0387 217.677 17.7605C218.025 17.4823 218.336 17.1882 218.612 16.8783C218.889 16.5683 219.156 16.2709 219.414 15.9859C219.62 15.7756 219.81 15.7324 219.984 15.8561C220.158 15.9799 220.177 16.2179 220.04 16.57C219.916 16.8759 219.672 17.2461 219.308 17.6807C218.965 18.1116 218.524 18.5482 217.985 18.9904C217.464 19.4077 216.862 19.795 216.177 20.1525C215.51 20.485 214.783 20.7182 213.995 20.8522C213.867 20.8739 213.727 20.8868 213.574 20.8908C213.421 20.8948 213.267 20.8882 213.11 20.871Z" stroke="black" mask="url(#path-1-outside-1_1217_746)"/>
<path d="M20.1269 82.605C21.264 83.3882 22.8207 83.1012 23.6038 81.964L36.3656 63.4333C37.1487 62.2962 36.8617 60.7395 35.7246 59.9564C34.5874 59.1733 33.0308 59.4602 32.2476 60.5974L20.9039 77.0691L4.4321 65.7253C3.29496 64.9422 1.73828 65.2292 0.955159 66.3663C0.172033 67.5035 0.459018 69.0602 1.59615 69.8433L20.1269 82.605ZM62.2923 38.0023C60.2412 33.2894 55.6232 29.5189 50.3297 27.4989C44.9941 25.4628 38.6131 25.0616 32.7946 27.5309C20.8176 32.614 13.1328 48.7059 19.0863 80.9993L24.0034 80.0928C18.1408 48.2924 26.2568 35.7372 34.7479 32.1336C39.1635 30.2596 44.1835 30.5052 48.547 32.1703C52.9526 33.8514 56.3319 36.8364 57.7077 39.9976L62.2923 38.0023Z" fill="black"/>
</svg>
