<svg width="150" height="56" viewBox="0 0 150 56" fill="none" xmlns="http://www.w3.org/2000/svg">
<path d="M4.48065 55.4577C3.58102 55.4577 2.79494 55.2694 2.12241 54.8927C1.44988 54.512 0.928009 53.9855 0.556805 53.3131C0.185602 52.6367 0 51.857 0 50.9741C0 50.0628 0.19652 49.2669 0.589559 48.5865C0.986965 47.902 1.53285 47.3714 2.22722 46.9947C2.92596 46.618 3.7295 46.4297 4.63786 46.4297C5.27546 46.4297 5.84755 46.5188 6.35413 46.697C6.86072 46.8752 7.29306 47.1182 7.65116 47.4261C8.01363 47.7298 8.29094 48.0741 8.4831 48.4589C8.67525 48.8436 8.77569 49.2406 8.78442 49.6496H6.11831C6.06154 49.4107 5.96764 49.196 5.83663 49.0057C5.70999 48.8153 5.54185 48.6654 5.33223 48.5561C5.12261 48.4427 4.86932 48.386 4.57236 48.386C4.26229 48.386 3.9697 48.4649 3.69457 48.6229C3.42381 48.7768 3.20327 49.0381 3.03295 49.4066C2.867 49.7712 2.78403 50.2693 2.78403 50.9012C2.78403 51.4399 2.84298 51.8753 2.96089 52.2074C3.08317 52.5355 3.23821 52.7866 3.42599 52.9607C3.61814 53.1349 3.82558 53.2524 4.0483 53.3131C4.27103 53.3739 4.48283 53.4042 4.68372 53.4042C4.86277 53.4042 5.02872 53.3799 5.18157 53.3313C5.33441 53.2827 5.46979 53.22 5.58771 53.143C5.70562 53.062 5.80388 52.9729 5.88249 52.8757C5.96546 52.7785 6.02442 52.6792 6.05935 52.578L6.17071 52.2621H4.51995V50.6703L8.85648 50.6946V55.3362H7.18607V54.3642C7.02885 54.514 6.83888 54.674 6.61616 54.8441C6.3978 55.0142 6.11831 55.16 5.77768 55.2815C5.43704 55.399 5.0047 55.4577 4.48065 55.4577Z" fill="white"/>
<path d="M10.0158 55.3362L13.3698 46.5512H15.9769L19.3309 55.3362H16.8154L16.1866 53.6351H13.1995L12.5575 55.3362H10.0158ZM13.7366 51.6181H15.6101L14.6799 48.8112L13.7366 51.6181Z" fill="white"/>
<path d="M28.2884 55.3362H25.6747L24.299 52.3107H22.9627V55.3362H20.4145V46.5512H24.7117C25.5327 46.5512 26.1922 46.6768 26.69 46.9279C27.1922 47.179 27.5569 47.5192 27.784 47.9485C28.0111 48.3738 28.1246 48.8517 28.1246 49.3823C28.1246 49.8319 28.0591 50.2167 27.9281 50.5367C27.8014 50.8526 27.6246 51.1239 27.3975 51.3508C27.1748 51.5735 26.9171 51.7679 26.6245 51.934L28.2884 55.3362ZM24.4235 50.5488C24.751 50.5488 25.0218 50.4293 25.2358 50.1904C25.4541 49.9514 25.5633 49.6902 25.5633 49.4066C25.5633 49.1029 25.4454 48.8436 25.2096 48.629C24.9737 48.4103 24.7117 48.3009 24.4235 48.3009H22.9627V50.5488H24.4235Z" fill="white"/>
<path d="M29.2072 55.3362L32.5611 46.5512H35.1683L38.5222 55.3362H36.0068L35.3779 53.6351H32.3908L31.7489 55.3362H29.2072ZM32.928 51.6181H34.8015L33.8713 48.8112L32.928 51.6181Z" fill="white"/>
<path d="M43.2984 55.4577C42.3988 55.4577 41.6127 55.2694 40.9401 54.8927C40.2676 54.512 39.7457 53.9855 39.3745 53.3131C39.0033 52.6367 38.8177 51.857 38.8177 50.9741C38.8177 50.0628 39.0142 49.2669 39.4073 48.5865C39.8047 47.902 40.3506 47.3714 41.045 46.9947C41.7437 46.618 42.5472 46.4297 43.4556 46.4297C44.0932 46.4297 44.6653 46.5188 45.1719 46.697C45.6784 46.8752 46.1108 47.1182 46.4689 47.4261C46.8314 47.7298 47.1087 48.0741 47.3008 48.4589C47.493 48.8436 47.5934 49.2406 47.6022 49.6496H44.936C44.8793 49.4107 44.7854 49.196 44.6544 49.0057C44.5277 48.8153 44.3596 48.6654 44.15 48.5561C43.9403 48.4427 43.687 48.386 43.3901 48.386C43.08 48.386 42.7874 48.4649 42.5123 48.6229C42.2415 48.7768 42.021 49.0381 41.8507 49.4066C41.6847 49.7712 41.6018 50.2693 41.6018 50.9012C41.6018 51.4399 41.6607 51.8753 41.7786 52.2074C41.9009 52.5355 42.0559 52.7866 42.2437 52.9607C42.4359 53.1349 42.6433 53.2524 42.866 53.3131C43.0888 53.3739 43.3006 53.4042 43.5014 53.4042C43.6805 53.4042 43.8464 53.3799 43.9993 53.3313C44.1521 53.2827 44.2875 53.22 44.4054 53.143C44.5233 53.062 44.6216 52.9729 44.7002 52.8757C44.7832 52.7785 44.8421 52.6792 44.8771 52.578L44.9884 52.2621H43.3377V50.6703L47.6742 50.6946V55.3362H46.0038V54.3642C45.8466 54.514 45.6566 54.674 45.4339 54.8441C45.2155 55.0142 44.936 55.16 44.5954 55.2815C44.2548 55.399 43.8224 55.4577 43.2984 55.4577Z" fill="white"/>
<path d="M49.3934 55.3362V46.5512H56.3895L56.3764 48.5075H51.9613V49.9656H55.6559V51.8732H51.9417V53.3678H56.4026V55.3362H49.3934Z" fill="white"/>
<path d="M60.4349 46.5512C60.5048 46.5512 60.6794 46.5512 60.9589 46.5512C61.2384 46.5512 61.5616 46.5512 61.9284 46.5512C62.2996 46.5471 62.6599 46.5471 63.0093 46.5512C63.3587 46.5512 63.636 46.5552 63.8412 46.5633C64.981 46.5998 65.9112 46.8064 66.6318 47.183C67.3567 47.5597 67.8895 48.068 68.2302 48.708C68.5708 49.3479 68.7411 50.083 68.7411 50.9133C68.7411 51.7679 68.5642 52.5294 68.2105 53.1977C67.8568 53.8619 67.3174 54.3844 66.5925 54.7651C65.8676 55.1459 64.9461 55.3362 63.8281 55.3362H60.4349V46.5512ZM62.9831 48.4103V53.4772H63.9067C64.2299 53.4772 64.5574 53.3941 64.8893 53.2281C65.2256 53.058 65.5073 52.7825 65.7344 52.4018C65.9658 52.0211 66.0815 51.5128 66.0815 50.8769C66.0815 50.3382 65.9898 49.8866 65.8064 49.5221C65.6274 49.1535 65.3741 48.876 65.0465 48.6897C64.719 48.5034 64.3391 48.4103 63.9067 48.4103H62.9831Z" fill="white"/>
<path d="M74.4551 55.4577C73.5162 55.4577 72.7017 55.2734 72.0117 54.9049C71.3261 54.5322 70.7955 54.0098 70.4199 53.3374C70.0443 52.6651 69.8566 51.8732 69.8566 50.9619C69.8566 50.0466 70.0465 49.2507 70.4265 48.5743C70.8108 47.8939 71.3479 47.3673 72.0379 46.9947C72.7279 46.618 73.5337 46.4297 74.4551 46.4297C75.3722 46.4297 76.1736 46.618 76.8592 46.9947C77.5448 47.3673 78.0776 47.8939 78.4576 48.5743C78.8375 49.2507 79.0275 50.0466 79.0275 50.9619C79.0275 51.8692 78.8397 52.661 78.4641 53.3374C78.0929 54.0098 77.5645 54.5322 76.8789 54.9049C76.1932 55.2734 75.3853 55.4577 74.4551 55.4577ZM74.4551 53.5622C74.8045 53.5622 75.1145 53.4812 75.3853 53.3192C75.6604 53.1531 75.8744 52.8838 76.0273 52.5112C76.1845 52.1345 76.2631 51.6302 76.2631 50.9984C76.2631 50.3463 76.1845 49.8258 76.0273 49.437C75.8744 49.0441 75.6604 48.7606 75.3853 48.5865C75.1145 48.4123 74.8045 48.3252 74.4551 48.3252C74.1057 48.3252 73.7935 48.4123 73.5184 48.5865C73.2476 48.7606 73.0336 49.0441 72.8764 49.437C72.7192 49.8258 72.6406 50.3463 72.6406 50.9984C72.6406 51.6302 72.7192 52.1345 72.8764 52.5112C73.0336 52.8838 73.2476 53.1531 73.5184 53.3192C73.7935 53.4812 74.1057 53.5622 74.4551 53.5622Z" fill="white"/>
<path d="M84.6137 55.4577C83.6748 55.4577 82.8604 55.2734 82.1703 54.9049C81.4847 54.5322 80.9541 54.0098 80.5785 53.3374C80.203 52.6651 80.0152 51.8732 80.0152 50.9619C80.0152 50.0466 80.2052 49.2507 80.5851 48.5743C80.9694 47.8939 81.5066 47.3673 82.1965 46.9947C82.8866 46.618 83.6923 46.4297 84.6137 46.4297C85.5308 46.4297 86.3322 46.618 87.0178 46.9947C87.7035 47.3673 88.2363 47.8939 88.6162 48.5743C88.9961 49.2507 89.1861 50.0466 89.1861 50.9619C89.1861 51.8692 88.9983 52.661 88.6227 53.3374C88.2515 54.0098 87.7231 54.5322 87.0375 54.9049C86.3519 55.2734 85.5439 55.4577 84.6137 55.4577ZM84.6137 53.5622C84.9631 53.5622 85.2732 53.4812 85.5439 53.3192C85.8191 53.1531 86.0331 52.8838 86.1859 52.5112C86.3431 52.1345 86.4217 51.6302 86.4217 50.9984C86.4217 50.3463 86.3431 49.8258 86.1859 49.437C86.0331 49.0441 85.8191 48.7606 85.5439 48.5865C85.2732 48.4123 84.9631 48.3252 84.6137 48.3252C84.2644 48.3252 83.9521 48.4123 83.677 48.5865C83.4062 48.7606 83.1923 49.0441 83.035 49.437C82.8778 49.8258 82.7992 50.3463 82.7992 50.9984C82.7992 51.6302 82.8778 52.1345 83.035 52.5112C83.1923 52.8838 83.4062 53.1531 83.677 53.3192C83.9521 53.4812 84.2644 53.5622 84.6137 53.5622Z" fill="white"/>
<path d="M98.5032 55.3362H95.8895L94.5138 52.3107H93.1775V55.3362H90.6293V46.5512H94.9265C95.7475 46.5512 96.407 46.6768 96.9048 46.9279C97.407 47.179 97.7717 47.5192 97.9988 47.9485C98.2259 48.3738 98.3394 48.8517 98.3394 49.3823C98.3394 49.8319 98.2739 50.2167 98.1429 50.5367C98.0162 50.8526 97.8394 51.1239 97.6123 51.3508C97.3896 51.5735 97.1319 51.7679 96.8393 51.934L98.5032 55.3362ZM94.6383 50.5488C94.9658 50.5488 95.2366 50.4293 95.4506 50.1904C95.6689 49.9514 95.7781 49.6902 95.7781 49.4066C95.7781 49.1029 95.6602 48.8436 95.4244 48.629C95.1885 48.4103 94.9265 48.3009 94.6383 48.3009H93.1775V50.5488H94.6383Z" fill="white"/>
<path d="M110.415 55.3362H107.801L106.425 52.3107H105.089V55.3362H102.541V46.5512H106.838C107.659 46.5512 108.318 46.6768 108.816 46.9279C109.318 47.179 109.683 47.5192 109.91 47.9485C110.137 48.3738 110.251 48.8517 110.251 49.3823C110.251 49.8319 110.185 50.2167 110.054 50.5367C109.928 50.8526 109.751 51.1239 109.524 51.3508C109.301 51.5735 109.043 51.7679 108.751 51.934L110.415 55.3362ZM106.55 50.5488C106.877 50.5488 107.148 50.4293 107.362 50.1904C107.58 49.9514 107.69 49.6902 107.69 49.4066C107.69 49.1029 107.572 48.8436 107.336 48.629C107.1 48.4103 106.838 48.3009 106.55 48.3009H105.089V50.5488H106.55Z" fill="white"/>
<path d="M111.893 55.3362V46.5512H118.889L118.876 48.5075H114.461V49.9656H118.156V51.8732H114.442V53.3678H118.903V55.3362H111.893Z" fill="white"/>
<path d="M120.376 55.3362V46.5512H124.123C124.822 46.5512 125.45 46.6666 126.009 46.8975C126.573 47.1284 127.018 47.4666 127.346 47.9121C127.673 48.3536 127.837 48.8923 127.837 49.5281C127.837 50.1073 127.7 50.6055 127.424 51.0227C127.149 51.4358 126.758 51.7538 126.252 51.9765C125.745 52.1993 125.145 52.3107 124.45 52.3107H122.924V55.3362H120.376ZM122.898 50.5488H124.372C124.695 50.5488 124.964 50.4293 125.178 50.1904C125.392 49.9514 125.499 49.6902 125.499 49.4066C125.499 49.1029 125.381 48.8436 125.145 48.629C124.913 48.4103 124.656 48.3009 124.372 48.3009H122.898V50.5488Z" fill="white"/>
<path d="M127.416 55.3362L130.77 46.5512H133.377L136.731 55.3362H134.215L133.587 53.6351H130.599L129.957 55.3362H127.416ZM131.137 51.6181H133.01L132.08 48.8112L131.137 51.6181Z" fill="white"/>
<path d="M137.814 46.5512H140.363V55.3362H137.814V46.5512Z" fill="white"/>
<path d="M150 55.3362H147.386L146.011 52.3107H144.674V55.3362H142.126V46.5512H146.423C147.244 46.5512 147.904 46.6768 148.402 46.9279C148.904 47.179 149.269 47.5192 149.496 47.9485C149.723 48.3738 149.836 48.8517 149.836 49.3823C149.836 49.8319 149.771 50.2167 149.64 50.5367C149.513 50.8526 149.336 51.1239 149.109 51.3508C148.886 51.5735 148.629 51.7679 148.336 51.934L150 55.3362ZM146.135 50.5488C146.463 50.5488 146.733 50.4293 146.947 50.1904C147.166 49.9514 147.275 49.6902 147.275 49.4066C147.275 49.1029 147.157 48.8436 146.921 48.629C146.685 48.4103 146.423 48.3009 146.135 48.3009H144.674V50.5488H146.135Z" fill="white"/>
<path d="M34.0086 0V28.2449H25.9914L34.0086 41.1421H20.819L12.8017 28.2449H12.6724V41.1421H0V0H34.0086ZM21.3362 5.67477H12.5431V22.5701H21.3362V5.67477Z" fill="white"/>
<path d="M72.5432 0V41.1421H38.4053V0H72.5432ZM51.0777 5.67477V35.4673H59.8708V5.67477H51.0777Z" fill="white"/>
<path d="M111.077 0V16.8953H98.405V5.67477H89.6119V35.4673H98.405V22.5701H111.077V41.1421H76.9395V0H111.077Z" fill="white"/>
<path d="M128.147 0V16.5084L136.94 10.0598V0H149.612V12.6392L138.491 20.3776L149.612 28.2449V41.271H136.94V31.2112L128.147 24.7626V41.1421H115.474V0H128.147Z" fill="white"/>
</svg>
