<svg width="115" height="43" viewBox="0 0 115 43" fill="none" xmlns="http://www.w3.org/2000/svg">
<path d="M3.43516 43C2.74545 43 2.14279 42.854 1.62718 42.5619C1.11157 42.2667 0.711474 41.8585 0.426884 41.3372C0.142295 40.8127 0 40.2082 0 39.5236C0 38.817 0.150665 38.1999 0.451995 37.6723C0.756673 37.1415 1.17519 36.7302 1.70754 36.4381C2.24323 36.146 2.85929 36 3.55569 36C4.04452 36 4.48312 36.0691 4.8715 36.2073C5.25988 36.3454 5.59134 36.5339 5.86589 36.7725C6.14378 37.0081 6.35639 37.275 6.50371 37.5734C6.65102 37.8717 6.72803 38.1795 6.73473 38.4966H4.6907C4.64718 38.3114 4.57519 38.1449 4.47475 37.9973C4.37766 37.8497 4.24875 37.7335 4.08804 37.6487C3.92733 37.5608 3.73314 37.5168 3.50547 37.5168C3.26776 37.5168 3.04343 37.5781 2.8325 37.7005C2.62492 37.8199 2.45584 38.0224 2.32526 38.3082C2.19804 38.5909 2.13442 38.9771 2.13442 39.467C2.13442 39.8847 2.17962 40.2223 2.27002 40.4798C2.36377 40.7342 2.48262 40.9289 2.62659 41.064C2.77391 41.199 2.93295 41.2901 3.1037 41.3372C3.27445 41.3843 3.43684 41.4078 3.59085 41.4078C3.72812 41.4078 3.85535 41.389 3.97253 41.3513C4.08972 41.3136 4.19351 41.2649 4.28391 41.2053C4.37431 41.1425 4.44964 41.0734 4.50991 40.998C4.57352 40.9226 4.61872 40.8457 4.6455 40.7672L4.73088 40.5222H3.4653V39.288L6.78997 39.3069V42.9058H5.50932V42.1521C5.38878 42.2683 5.24314 42.3924 5.07239 42.5243C4.90498 42.6562 4.6907 42.7692 4.42955 42.8634C4.1684 42.9545 3.83694 43 3.43516 43Z" fill="#0C0504"/>
<path d="M7.67881 42.9058L10.2502 36.0942H12.249L14.8203 42.9058H12.8918L12.4097 41.5868H10.1196L9.62741 42.9058H7.67881ZM10.5314 40.0229H11.9677L11.2546 37.8466L10.5314 40.0229Z" fill="#0C0504"/>
<path d="M21.6878 42.9058H19.6839L18.6293 40.5599H17.6047V42.9058H15.6511V36.0942H18.9457C19.5751 36.0942 20.0807 36.1916 20.4623 36.3863C20.8474 36.581 21.1269 36.8448 21.301 37.1777C21.4751 37.5074 21.5622 37.878 21.5622 38.2894C21.5622 38.638 21.512 38.9363 21.4115 39.1844C21.3144 39.4294 21.1788 39.6398 21.0047 39.8156C20.834 39.9884 20.6364 40.1391 20.4121 40.2679L21.6878 42.9058ZM18.7247 39.1938C18.9758 39.1938 19.1834 39.1012 19.3474 38.9159C19.5148 38.7306 19.5985 38.5281 19.5985 38.3082C19.5985 38.0727 19.5081 37.8717 19.3273 37.7053C19.1465 37.5357 18.9457 37.4509 18.7247 37.4509H17.6047V39.1938H18.7247Z" fill="#0C0504"/>
<path d="M22.3922 42.9058L24.9635 36.0942H26.9624L29.5337 42.9058H27.6052L27.1231 41.5868H24.833L24.3408 42.9058H22.3922ZM25.2448 40.0229H26.6811L25.968 37.8466L25.2448 40.0229Z" fill="#0C0504"/>
<path d="M33.1954 43C32.5057 43 31.9031 42.854 31.3874 42.5619C30.8718 42.2667 30.4717 41.8585 30.1871 41.3372C29.9026 40.8127 29.7603 40.2082 29.7603 39.5236C29.7603 38.817 29.9109 38.1999 30.2123 37.6723C30.5169 37.1415 30.9354 36.7302 31.4678 36.4381C32.0035 36.146 32.6195 36 33.316 36C33.8048 36 34.2434 36.0691 34.6318 36.2073C35.0201 36.3454 35.3516 36.5339 35.6261 36.7725C35.904 37.0081 36.1166 37.275 36.264 37.5734C36.4113 37.8717 36.4883 38.1795 36.495 38.4966H34.451C34.4074 38.3114 34.3355 38.1449 34.235 37.9973C34.1379 37.8497 34.009 37.7335 33.8483 37.6487C33.6876 37.5608 33.4934 37.5168 33.2657 37.5168C33.028 37.5168 32.8037 37.5781 32.5928 37.7005C32.3852 37.8199 32.2161 38.0224 32.0855 38.3082C31.9583 38.5909 31.8947 38.9771 31.8947 39.467C31.8947 39.8847 31.9399 40.2223 32.0303 40.4798C32.124 40.7342 32.2429 40.9289 32.3869 41.064C32.5342 41.199 32.6932 41.2901 32.864 41.3372C33.0347 41.3843 33.1971 41.4078 33.3511 41.4078C33.4884 41.4078 33.6156 41.389 33.7328 41.3513C33.85 41.3136 33.9538 41.2649 34.0442 41.2053C34.1346 41.1425 34.2099 41.0734 34.2702 40.998C34.3338 40.9226 34.379 40.8457 34.4058 40.7672L34.4911 40.5222H33.2256V39.288L36.5502 39.3069V42.9058H35.2696V42.1521C35.149 42.2683 35.0034 42.3924 34.8326 42.5243C34.6652 42.6562 34.451 42.7692 34.1898 42.8634C33.9287 42.9545 33.5972 43 33.1954 43Z" fill="#0C0504"/>
<path d="M37.8683 42.9058V36.0942H43.232L43.2219 37.611H39.837V38.7416H42.6695V40.2207H39.8219V41.3796H43.242V42.9058H37.8683Z" fill="#0C0504"/>
<path d="M46.3334 36.0942C46.387 36.0942 46.5209 36.0942 46.7352 36.0942C46.9495 36.0942 47.1972 36.0942 47.4785 36.0942C47.763 36.0911 48.0393 36.0911 48.3071 36.0942C48.575 36.0942 48.7876 36.0974 48.9449 36.1036C49.8188 36.1319 50.5319 36.2921 51.0844 36.5841C51.6402 36.8762 52.0486 37.2703 52.3098 37.7665C52.5709 38.2627 52.7015 38.8327 52.7015 39.4765C52.7015 40.1391 52.5659 40.7295 52.2947 41.2477C52.0235 41.7627 51.61 42.1678 51.0542 42.463C50.4985 42.7582 49.792 42.9058 48.9349 42.9058H46.3334V36.0942ZM48.287 37.5357V41.4644H48.9952C49.2429 41.4644 49.494 41.4 49.7485 41.2712C50.0063 41.1393 50.2222 40.9258 50.3963 40.6306C50.5738 40.3354 50.6625 39.9412 50.6625 39.4482C50.6625 39.0305 50.5922 38.6804 50.4516 38.3977C50.3143 38.1119 50.1201 37.8968 49.869 37.7524C49.6179 37.6079 49.3266 37.5357 48.9952 37.5357H48.287Z" fill="#0C0504"/>
<path d="M57.0823 43C56.3624 43 55.738 42.8571 55.209 42.5714C54.6833 42.2824 54.2765 41.8773 53.9886 41.356C53.7007 40.8347 53.5567 40.2207 53.5567 39.5141C53.5567 38.8044 53.7023 38.1873 53.9936 37.6629C54.2883 37.1353 54.7001 36.727 55.2291 36.4381C55.7581 36.146 56.3758 36 57.0823 36C57.7854 36 58.3997 36.146 58.9254 36.4381C59.451 36.727 59.8595 37.1353 60.1508 37.6629C60.4421 38.1873 60.5877 38.8044 60.5877 39.5141C60.5877 40.2176 60.4438 40.8316 60.1558 41.356C59.8712 41.8773 59.4661 42.2824 58.9405 42.5714C58.4148 42.8571 57.7954 43 57.0823 43ZM57.0823 41.5303C57.3501 41.5303 57.5878 41.4675 57.7954 41.3419C58.0063 41.2131 58.1704 41.0043 58.2876 40.7154C58.4081 40.4233 58.4684 40.0323 58.4684 39.5424C58.4684 39.0368 58.4081 38.6333 58.2876 38.3318C58.1704 38.0272 58.0063 37.8073 57.7954 37.6723C57.5878 37.5372 57.3501 37.4697 57.0823 37.4697C56.8144 37.4697 56.575 37.5372 56.3641 37.6723C56.1565 37.8073 55.9924 38.0272 55.8719 38.3318C55.7514 38.6333 55.6911 39.0368 55.6911 39.5424C55.6911 40.0323 55.7514 40.4233 55.8719 40.7154C55.9924 41.0043 56.1565 41.2131 56.3641 41.3419C56.575 41.4675 56.8144 41.5303 57.0823 41.5303Z" fill="#0C0504"/>
<path d="M64.8705 43C64.1507 43 63.5263 42.8571 62.9973 42.5714C62.4716 42.2824 62.0648 41.8773 61.7769 41.356C61.4889 40.8347 61.345 40.2207 61.345 39.5141C61.345 38.8044 61.4906 38.1873 61.7819 37.6629C62.0765 37.1353 62.4884 36.727 63.0174 36.4381C63.5464 36.146 64.1641 36 64.8705 36C65.5736 36 66.188 36.146 66.7137 36.4381C67.2393 36.727 67.6478 37.1353 67.9391 37.6629C68.2304 38.1873 68.376 38.8044 68.376 39.5141C68.376 40.2176 68.232 40.8316 67.9441 41.356C67.6595 41.8773 67.2544 42.2824 66.7287 42.5714C66.2031 42.8571 65.5837 43 64.8705 43ZM64.8705 41.5303C65.1384 41.5303 65.3761 41.4675 65.5837 41.3419C65.7946 41.2131 65.9587 41.0043 66.0759 40.7154C66.1964 40.4233 66.2567 40.0323 66.2567 39.5424C66.2567 39.0368 66.1964 38.6333 66.0759 38.3318C65.9587 38.0272 65.7946 37.8073 65.5837 37.6723C65.3761 37.5372 65.1384 37.4697 64.8705 37.4697C64.6027 37.4697 64.3633 37.5372 64.1524 37.6723C63.9448 37.8073 63.7807 38.0272 63.6602 38.3318C63.5397 38.6333 63.4794 39.0368 63.4794 39.5424C63.4794 40.0323 63.5397 40.4233 63.6602 40.7154C63.7807 41.0043 63.9448 41.2131 64.1524 41.3419C64.3633 41.4675 64.6027 41.5303 64.8705 41.5303Z" fill="#0C0504"/>
<path d="M75.5191 42.9058H73.5153L72.4606 40.5599H71.4361V42.9058H69.4825V36.0942H72.777C73.4064 36.0942 73.912 36.1916 74.2937 36.3863C74.6787 36.581 74.9583 36.8448 75.1324 37.1777C75.3065 37.5074 75.3935 37.878 75.3935 38.2894C75.3935 38.638 75.3433 38.9363 75.2429 39.1844C75.1458 39.4294 75.0102 39.6398 74.8361 39.8156C74.6653 39.9884 74.4678 40.1391 74.2435 40.2679L75.5191 42.9058ZM72.556 39.1938C72.8071 39.1938 73.0147 39.1012 73.1788 38.9159C73.3462 38.7306 73.4299 38.5281 73.4299 38.3082C73.4299 38.0727 73.3395 37.8717 73.1587 37.7053C72.9779 37.5357 72.777 37.4509 72.556 37.4509H71.4361V39.1938H72.556Z" fill="#0C0504"/>
<path d="M84.6512 42.9058H82.6474L81.5927 40.5599H80.5682V42.9058H78.6146V36.0942H81.9091C82.5385 36.0942 83.0441 36.1916 83.4258 36.3863C83.8108 36.581 84.0904 36.8448 84.2645 37.1777C84.4386 37.5074 84.5256 37.878 84.5256 38.2894C84.5256 38.638 84.4754 38.9363 84.375 39.1844C84.2779 39.4294 84.1423 39.6398 83.9682 39.8156C83.7974 39.9884 83.5999 40.1391 83.3756 40.2679L84.6512 42.9058ZM81.6881 39.1938C81.9392 39.1938 82.1468 39.1012 82.3109 38.9159C82.4783 38.7306 82.562 38.5281 82.562 38.3082C82.562 38.0727 82.4716 37.8717 82.2908 37.7053C82.11 37.5357 81.9091 37.4509 81.6881 37.4509H80.5682V39.1938H81.6881Z" fill="#0C0504"/>
<path d="M85.7849 42.9058V36.0942H91.1486L91.1385 37.611H87.7536V38.7416H90.5861V40.2207H87.7385V41.3796H91.1586V42.9058H85.7849Z" fill="#0C0504"/>
<path d="M92.2882 42.9058V36.0942H95.1609C95.6966 36.0942 96.1787 36.1837 96.6073 36.3627C97.0392 36.5417 97.3807 36.804 97.6318 37.1494C97.8829 37.4917 98.0084 37.9094 98.0084 38.4024C98.0084 38.8515 97.903 39.2378 97.692 39.5613C97.4811 39.8816 97.1815 40.1281 96.7931 40.3008C96.4047 40.4736 95.9443 40.5599 95.412 40.5599H94.2418V42.9058H92.2882ZM94.2217 39.1938H95.3517C95.5995 39.1938 95.8054 39.1012 95.9694 38.9159C96.1335 38.7306 96.2155 38.5281 96.2155 38.3082C96.2155 38.0727 96.1251 37.8717 95.9443 37.7053C95.7669 37.5357 95.5693 37.4509 95.3517 37.4509H94.2217V39.1938Z" fill="#0C0504"/>
<path d="M97.6854 42.9058L100.257 36.0942H102.256L104.827 42.9058H102.898L102.416 41.5868H100.126L99.634 42.9058H97.6854ZM100.538 40.0229H101.974L101.261 37.8466L100.538 40.0229Z" fill="#0C0504"/>
<path d="M105.658 36.0942H107.611V42.9058H105.658V36.0942Z" fill="#0C0504"/>
<path d="M115 42.9058H112.996L111.941 40.5599H110.917V42.9058H108.963V36.0942H112.258C112.887 36.0942 113.393 36.1916 113.775 36.3863C114.16 36.581 114.439 36.8448 114.613 37.1777C114.787 37.5074 114.874 37.878 114.874 38.2894C114.874 38.638 114.824 38.9363 114.724 39.1844C114.627 39.4294 114.491 39.6398 114.317 39.8156C114.146 39.9884 113.949 40.1391 113.724 40.2679L115 42.9058ZM112.037 39.1938C112.288 39.1938 112.496 39.1012 112.66 38.9159C112.827 38.7306 112.911 38.5281 112.911 38.3082C112.911 38.0727 112.82 37.8717 112.64 37.7053C112.459 37.5357 112.258 37.4509 112.037 37.4509H110.917V39.1938H112.037Z" fill="#0C0504"/>
<path d="M26.0733 0V21.9001H19.9267L26.0733 31.9001H15.9612L9.81466 21.9001H9.71552V31.9001H0V0H26.0733ZM16.3578 4.40002H9.61638V17.5001H16.3578V4.40002Z" fill="#0C0504"/>
<path d="M55.6163 0V31.9001H29.4438V0H55.6163ZM39.1594 4.40002V27.5001H45.9007V4.40002H39.1594Z" fill="#0C0504"/>
<path d="M85.1597 0V13.1H75.4442V4.40002H68.7028V27.5001H75.4442V17.5001H85.1597V31.9001H58.9873V0H85.1597Z" fill="#0C0504"/>
<path d="M98.2458 0V12.8L104.987 7.80002V0H114.703V9.80003L106.177 15.8001L114.703 21.9001V32.0001H104.987V24.2001L98.2458 19.2001V31.9001H88.5303V0H98.2458Z" fill="#0C0504"/>
</svg>
